solid OpenSCAD_Model
  facet normal 0 0 -1
    outer loop
      vertex -20.303108891324555 -58.175 0
      vertex -20.338074039201175 -58.090586665785885 0
      vertex -20.303108891324555 -57.825 0
    endloop
  endfacet
  facet normal 0 0 -1
    outer loop
      vertex -20.24748737341529 -58.24748737341529 0
      vertex -20.175 -57.696891108675445 0
      vertex -20.175 -58.303108891324555 0
    endloop
  endfacet
  facet normal 0 0 -1
    outer loop
      vertex -20.303108891324555 -58.175 0
      vertex -20.24748737341529 -57.75251262658471 0
      vertex -20.24748737341529 -58.24748737341529 0
    endloop
  endfacet
  facet normal 0 0 -1
    outer loop
      vertex -20.175 -58.303108891324555 0
      vertex -20.09058666578588 -57.661925960798825 0
      vertex -20.09058666578588 -58.338074039201175 0
    endloop
  endfacet
  facet normal 0 0 -1
    outer loop
      vertex -20.09058666578588 -58.338074039201175 0
      vertex -20 -57.65 0
      vertex -20 -58.35 0
    endloop
  endfacet
  facet normal 0 0 -1
    outer loop
      vertex -20 -58.35 0
      vertex -19.90941333421412 -57.661925960798825 0
      vertex -19.90941333421412 -58.338074039201175 0
    endloop
  endfacet
  facet normal 0 0 -1
    outer loop
      vertex -19.90941333421412 -58.338074039201175 0
      vertex -19.825 -57.696891108675445 0
      vertex -19.825 -58.303108891324555 0
    endloop
  endfacet
  facet normal 0 0 -1
    outer loop
      vertex -19.825 -58.303108891324555 0
      vertex -19.75251262658471 -57.75251262658471 0
      vertex -19.75251262658471 -58.24748737341529 0
    endloop
  endfacet
  facet normal 0 0 -1
    outer loop
      vertex -19.75251262658471 -58.24748737341529 0
      vertex -19.696891108675445 -57.825 0
      vertex -19.696891108675445 -58.175 0
    endloop
  endfacet
  facet normal 0 0 -1
    outer loop
      vertex -19.696891108675445 -58.175 0
      vertex -19.661925960798825 -57.909413334214115 0
      vertex -19.661925960798825 -58.090586665785885 0
    endloop
  endfacet
  facet normal 0 0 -1
    outer loop
      vertex -20.338074039201175 -58.090586665785885 0
      vertex -20.35 -58 0
      vertex -20.338074039201175 -57.909413334214115 0
    endloop
  endfacet
  facet normal 0 0 -1
    outer loop
      vertex -20.338074039201175 -58.090586665785885 0
      vertex -20.338074039201175 -57.909413334214115 0
      vertex -20.303108891324555 -57.825 0
    endloop
  endfacet
  facet normal 0 0 -1
    outer loop
      vertex -20.303108891324555 -58.175 0
      vertex -20.303108891324555 -57.825 0
      vertex -20.24748737341529 -57.75251262658471 0
    endloop
  endfacet
  facet normal 0 0 -1
    outer loop
      vertex -20.24748737341529 -58.24748737341529 0
      vertex -20.24748737341529 -57.75251262658471 0
      vertex -20.175 -57.696891108675445 0
    endloop
  endfacet
  facet normal 0 0 -1
    outer loop
      vertex -20.175 -58.303108891324555 0
      vertex -20.175 -57.696891108675445 0
      vertex -20.09058666578588 -57.661925960798825 0
    endloop
  endfacet
  facet normal 0 0 -1
    outer loop
      vertex -20.09058666578588 -58.338074039201175 0
      vertex -20.09058666578588 -57.661925960798825 0
      vertex -20 -57.65 0
    endloop
  endfacet
  facet normal 0 0 -1
    outer loop
      vertex -20 -58.35 0
      vertex -20 -57.65 0
      vertex -19.90941333421412 -57.661925960798825 0
    endloop
  endfacet
  facet normal 0 0 -1
    outer loop
      vertex -19.90941333421412 -58.338074039201175 0
      vertex -19.90941333421412 -57.661925960798825 0
      vertex -19.825 -57.696891108675445 0
    endloop
  endfacet
  facet normal 0 0 -1
    outer loop
      vertex -19.825 -58.303108891324555 0
      vertex -19.825 -57.696891108675445 0
      vertex -19.75251262658471 -57.75251262658471 0
    endloop
  endfacet
  facet normal 0 0 -1
    outer loop
      vertex -19.75251262658471 -58.24748737341529 0
      vertex -19.75251262658471 -57.75251262658471 0
      vertex -19.696891108675445 -57.825 0
    endloop
  endfacet
  facet normal 0 0 -1
    outer loop
      vertex -19.696891108675445 -58.175 0
      vertex -19.696891108675445 -57.825 0
      vertex -19.661925960798825 -57.909413334214115 0
    endloop
  endfacet
  facet normal 0 0 -1
    outer loop
      vertex -19.661925960798825 -58.090586665785885 0
      vertex -19.661925960798825 -57.909413334214115 0
      vertex -19.65 -58 0
    endloop
  endfacet
  facet normal -0.7933533402912154 -0.6087614290087463 0
    outer loop
      vertex -20.303108891324555 -58.175 0
      vertex -20.24748737341529 -58.24748737341529 0
      vertex -20.303108891324555 -58.175 7
    endloop
  endfacet
  facet normal -0.9238795325112825 -0.38268343236509983 0
    outer loop
      vertex -20.303108891324555 -58.175 0
      vertex -20.338074039201175 -58.090586665785885 7
      vertex -20.338074039201175 -58.090586665785885 0
    endloop
  endfacet
  facet normal -0.9914448613738097 -0.13052619222005618 0
    outer loop
      vertex -20.338074039201175 -58.090586665785885 0
      vertex -20.35 -58 7
      vertex -20.35 -58 0
    endloop
  endfacet
  facet normal -0.6087614290087651 -0.7933533402912011 0
    outer loop
      vertex -20.24748737341529 -58.24748737341529 0
      vertex -20.175 -58.303108891324555 0
      vertex -20.175 -58.303108891324555 7
    endloop
  endfacet
  facet normal -0.3826834323650724 -0.9238795325112941 0
    outer loop
      vertex -20.175 -58.303108891324555 0
      vertex -20.09058666578588 -58.338074039201175 0
      vertex -20.09058666578588 -58.338074039201175 7
    endloop
  endfacet
  facet normal -0.1305261922200612 -0.991444861373809 0
    outer loop
      vertex -20.09058666578588 -58.338074039201175 0
      vertex -20 -58.35 0
      vertex -20 -58.35 7
    endloop
  endfacet
  facet normal 0.1305261922200612 -0.991444861373809 0
    outer loop
      vertex -20 -58.35 0
      vertex -19.90941333421412 -58.338074039201175 0
      vertex -19.90941333421412 -58.338074039201175 7
    endloop
  endfacet
  facet normal 0.3826834323650724 -0.9238795325112941 0
    outer loop
      vertex -19.90941333421412 -58.338074039201175 0
      vertex -19.825 -58.303108891324555 0
      vertex -19.825 -58.303108891324555 7
    endloop
  endfacet
  facet normal 0.6087614290087651 -0.7933533402912011 0
    outer loop
      vertex -19.825 -58.303108891324555 0
      vertex -19.75251262658471 -58.24748737341529 0
      vertex -19.75251262658471 -58.24748737341529 7
    endloop
  endfacet
  facet normal 0.7933533402912154 -0.6087614290087463 0
    outer loop
      vertex -19.75251262658471 -58.24748737341529 0
      vertex -19.696891108675445 -58.175 0
      vertex -19.75251262658471 -58.24748737341529 7
    endloop
  endfacet
  facet normal 0.9238795325112825 -0.38268343236509983 0
    outer loop
      vertex -19.696891108675445 -58.175 0
      vertex -19.661925960798825 -58.090586665785885 0
      vertex -19.696891108675445 -58.175 7
    endloop
  endfacet
  facet normal 0.9914448613738097 -0.13052619222005618 0
    outer loop
      vertex -19.661925960798825 -58.090586665785885 0
      vertex -19.65 -58 0
      vertex -19.661925960798825 -58.090586665785885 7
    endloop
  endfacet
  facet normal -0.9914448613738097 0.13052619222005618 0
    outer loop
      vertex -20.35 -58 0
      vertex -20.338074039201175 -57.909413334214115 7
      vertex -20.338074039201175 -57.909413334214115 0
    endloop
  endfacet
  facet normal -0.9238795325112825 0.38268343236509983 0
    outer loop
      vertex -20.338074039201175 -57.909413334214115 0
      vertex -20.303108891324555 -57.825 7
      vertex -20.303108891324555 -57.825 0
    endloop
  endfacet
  facet normal -0.7933533402912154 0.6087614290087463 0
    outer loop
      vertex -20.303108891324555 -57.825 0
      vertex -20.24748737341529 -57.75251262658471 7
      vertex -20.24748737341529 -57.75251262658471 0
    endloop
  endfacet
  facet normal -0.6087614290087651 0.7933533402912011 0
    outer loop
      vertex -20.24748737341529 -57.75251262658471 0
      vertex -20.24748737341529 -57.75251262658471 7
      vertex -20.175 -57.696891108675445 0
    endloop
  endfacet
  facet normal -0.3826834323650724 0.9238795325112941 0
    outer loop
      vertex -20.175 -57.696891108675445 0
      vertex -20.175 -57.696891108675445 7
      vertex -20.09058666578588 -57.661925960798825 0
    endloop
  endfacet
  facet normal -0.1305261922200612 0.991444861373809 0
    outer loop
      vertex -20.09058666578588 -57.661925960798825 0
      vertex -20.09058666578588 -57.661925960798825 7
      vertex -20 -57.65 0
    endloop
  endfacet
  facet normal 0.1305261922200612 0.991444861373809 0
    outer loop
      vertex -20 -57.65 0
      vertex -20 -57.65 7
      vertex -19.90941333421412 -57.661925960798825 0
    endloop
  endfacet
  facet normal 0.9914448613738097 0.13052619222005618 0
    outer loop
      vertex -19.65 -58 0
      vertex -19.661925960798825 -57.909413334214115 0
      vertex -19.65 -58 7
    endloop
  endfacet
  facet normal 0.9238795325112825 0.38268343236509983 0
    outer loop
      vertex -19.661925960798825 -57.909413334214115 0
      vertex -19.696891108675445 -57.825 0
      vertex -19.661925960798825 -57.909413334214115 7
    endloop
  endfacet
  facet normal 0.7933533402912154 0.6087614290087463 0
    outer loop
      vertex -19.696891108675445 -57.825 0
      vertex -19.75251262658471 -57.75251262658471 0
      vertex -19.696891108675445 -57.825 7
    endloop
  endfacet
  facet normal 0.3826834323650724 0.9238795325112941 0
    outer loop
      vertex -19.90941333421412 -57.661925960798825 0
      vertex -19.90941333421412 -57.661925960798825 7
      vertex -19.825 -57.696891108675445 0
    endloop
  endfacet
  facet normal 0.6087614290087651 0.7933533402912011 0
    outer loop
      vertex -19.825 -57.696891108675445 0
      vertex -19.825 -57.696891108675445 7
      vertex -19.75251262658471 -57.75251262658471 0
    endloop
  endfacet
  facet normal -0.9238795325112825 -0.38268343236509983 0
    outer loop
      vertex -20.303108891324555 -58.175 0
      vertex -20.303108891324555 -58.175 7
      vertex -20.338074039201175 -58.090586665785885 7
    endloop
  endfacet
  facet normal -0.9914448613738097 -0.13052619222005618 0
    outer loop
      vertex -20.338074039201175 -58.090586665785885 0
      vertex -20.338074039201175 -58.090586665785885 7
      vertex -20.35 -58 7
    endloop
  endfacet
  facet normal -0.6087614290087651 -0.7933533402912011 0
    outer loop
      vertex -20.24748737341529 -58.24748737341529 0
      vertex -20.175 -58.303108891324555 7
      vertex -20.24748737341529 -58.24748737341529 7
    endloop
  endfacet
  facet normal -0.3826834323650724 -0.9238795325112941 0
    outer loop
      vertex -20.175 -58.303108891324555 0
      vertex -20.09058666578588 -58.338074039201175 7
      vertex -20.175 -58.303108891324555 7
    endloop
  endfacet
  facet normal -0.1305261922200612 -0.991444861373809 0
    outer loop
      vertex -20.09058666578588 -58.338074039201175 0
      vertex -20 -58.35 7
      vertex -20.09058666578588 -58.338074039201175 7
    endloop
  endfacet
  facet normal 0.1305261922200612 -0.991444861373809 0
    outer loop
      vertex -20 -58.35 0
      vertex -19.90941333421412 -58.338074039201175 7
      vertex -20 -58.35 7
    endloop
  endfacet
  facet normal -0.7933533402912154 -0.6087614290087463 0
    outer loop
      vertex -20.24748737341529 -58.24748737341529 0
      vertex -20.24748737341529 -58.24748737341529 7
      vertex -20.303108891324555 -58.175 7
    endloop
  endfacet
  facet normal 0.3826834323650724 -0.9238795325112941 0
    outer loop
      vertex -19.90941333421412 -58.338074039201175 0
      vertex -19.825 -58.303108891324555 7
      vertex -19.90941333421412 -58.338074039201175 7
    endloop
  endfacet
  facet normal 0.6087614290087651 -0.7933533402912011 0
    outer loop
      vertex -19.825 -58.303108891324555 0
      vertex -19.75251262658471 -58.24748737341529 7
      vertex -19.825 -58.303108891324555 7
    endloop
  endfacet
  facet normal 0.7933533402912154 -0.6087614290087463 0
    outer loop
      vertex -19.696891108675445 -58.175 0
      vertex -19.696891108675445 -58.175 7
      vertex -19.75251262658471 -58.24748737341529 7
    endloop
  endfacet
  facet normal 0.9238795325112825 -0.38268343236509983 0
    outer loop
      vertex -19.661925960798825 -58.090586665785885 0
      vertex -19.661925960798825 -58.090586665785885 7
      vertex -19.696891108675445 -58.175 7
    endloop
  endfacet
  facet normal 0.9914448613738097 -0.13052619222005618 0
    outer loop
      vertex -19.65 -58 0
      vertex -19.65 -58 7
      vertex -19.661925960798825 -58.090586665785885 7
    endloop
  endfacet
  facet normal -0.9914448613738097 0.13052619222005618 0
    outer loop
      vertex -20.35 -58 0
      vertex -20.35 -58 7
      vertex -20.338074039201175 -57.909413334214115 7
    endloop
  endfacet
  facet normal -0.9238795325112825 0.38268343236509983 0
    outer loop
      vertex -20.338074039201175 -57.909413334214115 0
      vertex -20.338074039201175 -57.909413334214115 7
      vertex -20.303108891324555 -57.825 7
    endloop
  endfacet
  facet normal -0.7933533402912154 0.6087614290087463 0
    outer loop
      vertex -20.303108891324555 -57.825 0
      vertex -20.303108891324555 -57.825 7
      vertex -20.24748737341529 -57.75251262658471 7
    endloop
  endfacet
  facet normal -0.6087614290087651 0.7933533402912011 0
    outer loop
      vertex -20.175 -57.696891108675445 0
      vertex -20.24748737341529 -57.75251262658471 7
      vertex -20.175 -57.696891108675445 7
    endloop
  endfacet
  facet normal -0.3826834323650724 0.9238795325112941 0
    outer loop
      vertex -20.09058666578588 -57.661925960798825 0
      vertex -20.175 -57.696891108675445 7
      vertex -20.09058666578588 -57.661925960798825 7
    endloop
  endfacet
  facet normal -0.1305261922200612 0.991444861373809 0
    outer loop
      vertex -20 -57.65 0
      vertex -20.09058666578588 -57.661925960798825 7
      vertex -20 -57.65 7
    endloop
  endfacet
  facet normal 0.1305261922200612 0.991444861373809 0
    outer loop
      vertex -19.90941333421412 -57.661925960798825 0
      vertex -20 -57.65 7
      vertex -19.90941333421412 -57.661925960798825 7
    endloop
  endfacet
  facet normal 0.9914448613738097 0.13052619222005618 0
    outer loop
      vertex -19.661925960798825 -57.909413334214115 0
      vertex -19.661925960798825 -57.909413334214115 7
      vertex -19.65 -58 7
    endloop
  endfacet
  facet normal 0.9238795325112825 0.38268343236509983 0
    outer loop
      vertex -19.696891108675445 -57.825 0
      vertex -19.696891108675445 -57.825 7
      vertex -19.661925960798825 -57.909413334214115 7
    endloop
  endfacet
  facet normal 0.7933533402912154 0.6087614290087463 0
    outer loop
      vertex -19.75251262658471 -57.75251262658471 0
      vertex -19.75251262658471 -57.75251262658471 7
      vertex -19.696891108675445 -57.825 7
    endloop
  endfacet
  facet normal 0.3826834323650724 0.9238795325112941 0
    outer loop
      vertex -19.825 -57.696891108675445 0
      vertex -19.90941333421412 -57.661925960798825 7
      vertex -19.825 -57.696891108675445 7
    endloop
  endfacet
  facet normal 0.6087614290087651 0.7933533402912011 0
    outer loop
      vertex -19.75251262658471 -57.75251262658471 0
      vertex -19.825 -57.696891108675445 7
      vertex -19.75251262658471 -57.75251262658471 7
    endloop
  endfacet
  facet normal 0 0 -1
    outer loop
      vertex -20.303108891324555 -46.175 0
      vertex -20.338074039201175 -46.090586665785885 0
      vertex -20.303108891324555 -45.825 0
    endloop
  endfacet
  facet normal 0 0 -1
    outer loop
      vertex -20.24748737341529 -46.24748737341529 0
      vertex -20.175 -45.696891108675445 0
      vertex -20.175 -46.303108891324555 0
    endloop
  endfacet
  facet normal 0 0 -1
    outer loop
      vertex -20.24748737341529 -46.24748737341529 0
      vertex -20.303108891324555 -46.175 0
      vertex -20.24748737341529 -45.75251262658471 0
    endloop
  endfacet
  facet normal 0 0 -1
    outer loop
      vertex -20.175 -46.303108891324555 0
      vertex -20.09058666578588 -45.661925960798825 0
      vertex -20.09058666578588 -46.338074039201175 0
    endloop
  endfacet
  facet normal 0 0 -1
    outer loop
      vertex -20.09058666578588 -46.338074039201175 0
      vertex -20 -45.65 0
      vertex -20 -46.35 0
    endloop
  endfacet
  facet normal 0 0 -1
    outer loop
      vertex -20 -46.35 0
      vertex -19.90941333421412 -45.661925960798825 0
      vertex -19.90941333421412 -46.338074039201175 0
    endloop
  endfacet
  facet normal 0 0 -1
    outer loop
      vertex -19.90941333421412 -46.338074039201175 0
      vertex -19.825 -45.696891108675445 0
      vertex -19.825 -46.303108891324555 0
    endloop
  endfacet
  facet normal 0 0 -1
    outer loop
      vertex -19.825 -46.303108891324555 0
      vertex -19.75251262658471 -45.75251262658471 0
      vertex -19.75251262658471 -46.24748737341529 0
    endloop
  endfacet
  facet normal 0 0 -1
    outer loop
      vertex -19.75251262658471 -46.24748737341529 0
      vertex -19.696891108675445 -45.825 0
      vertex -19.696891108675445 -46.175 0
    endloop
  endfacet
  facet normal 0 0 -1
    outer loop
      vertex -19.696891108675445 -46.175 0
      vertex -19.661925960798825 -45.909413334214115 0
      vertex -19.661925960798825 -46.090586665785885 0
    endloop
  endfacet
  facet normal 0 0 -1
    outer loop
      vertex -20.338074039201175 -46.090586665785885 0
      vertex -20.35 -46 0
      vertex -20.338074039201175 -45.909413334214115 0
    endloop
  endfacet
  facet normal 0 0 -1
    outer loop
      vertex -20.338074039201175 -46.090586665785885 0
      vertex -20.338074039201175 -45.909413334214115 0
      vertex -20.303108891324555 -45.825 0
    endloop
  endfacet
  facet normal 0 0 -1
    outer loop
      vertex -20.303108891324555 -46.175 0
      vertex -20.303108891324555 -45.825 0
      vertex -20.24748737341529 -45.75251262658471 0
    endloop
  endfacet
  facet normal 0 0 -1
    outer loop
      vertex -20.24748737341529 -46.24748737341529 0
      vertex -20.24748737341529 -45.75251262658471 0
      vertex -20.175 -45.696891108675445 0
    endloop
  endfacet
  facet normal 0 0 -1
    outer loop
      vertex -20.175 -46.303108891324555 0
      vertex -20.175 -45.696891108675445 0
      vertex -20.09058666578588 -45.661925960798825 0
    endloop
  endfacet
  facet normal 0 0 -1
    outer loop
      vertex -20.09058666578588 -46.338074039201175 0
      vertex -20.09058666578588 -45.661925960798825 0
      vertex -20 -45.65 0
    endloop
  endfacet
  facet normal 0 0 -1
    outer loop
      vertex -20 -46.35 0
      vertex -20 -45.65 0
      vertex -19.90941333421412 -45.661925960798825 0
    endloop
  endfacet
  facet normal 0 0 -1
    outer loop
      vertex -19.90941333421412 -46.338074039201175 0
      vertex -19.90941333421412 -45.661925960798825 0
      vertex -19.825 -45.696891108675445 0
    endloop
  endfacet
  facet normal 0 0 -1
    outer loop
      vertex -19.825 -46.303108891324555 0
      vertex -19.825 -45.696891108675445 0
      vertex -19.75251262658471 -45.75251262658471 0
    endloop
  endfacet
  facet normal 0 0 -1
    outer loop
      vertex -19.75251262658471 -46.24748737341529 0
      vertex -19.75251262658471 -45.75251262658471 0
      vertex -19.696891108675445 -45.825 0
    endloop
  endfacet
  facet normal 0 0 -1
    outer loop
      vertex -19.696891108675445 -46.175 0
      vertex -19.696891108675445 -45.825 0
      vertex -19.661925960798825 -45.909413334214115 0
    endloop
  endfacet
  facet normal 0 0 -1
    outer loop
      vertex -19.661925960798825 -46.090586665785885 0
      vertex -19.661925960798825 -45.909413334214115 0
      vertex -19.65 -46 0
    endloop
  endfacet
  facet normal -0.7933533402912154 -0.6087614290087463 0
    outer loop
      vertex -20.24748737341529 -46.24748737341529 0
      vertex -20.303108891324555 -46.175 7
      vertex -20.303108891324555 -46.175 0
    endloop
  endfacet
  facet normal -0.9238795325112825 -0.38268343236509983 0
    outer loop
      vertex -20.303108891324555 -46.175 0
      vertex -20.338074039201175 -46.090586665785885 7
      vertex -20.338074039201175 -46.090586665785885 0
    endloop
  endfacet
  facet normal -0.9914448613738097 -0.13052619222005618 0
    outer loop
      vertex -20.338074039201175 -46.090586665785885 0
      vertex -20.35 -46 7
      vertex -20.35 -46 0
    endloop
  endfacet
  facet normal -0.6087614290087651 -0.7933533402912011 0
    outer loop
      vertex -20.24748737341529 -46.24748737341529 0
      vertex -20.175 -46.303108891324555 0
      vertex -20.175 -46.303108891324555 7
    endloop
  endfacet
  facet normal -0.3826834323650724 -0.9238795325112941 0
    outer loop
      vertex -20.175 -46.303108891324555 0
      vertex -20.09058666578588 -46.338074039201175 0
      vertex -20.09058666578588 -46.338074039201175 7
    endloop
  endfacet
  facet normal -0.1305261922200612 -0.991444861373809 0
    outer loop
      vertex -20.09058666578588 -46.338074039201175 0
      vertex -20 -46.35 0
      vertex -20 -46.35 7
    endloop
  endfacet
  facet normal 0.1305261922200612 -0.991444861373809 0
    outer loop
      vertex -20 -46.35 0
      vertex -19.90941333421412 -46.338074039201175 0
      vertex -19.90941333421412 -46.338074039201175 7
    endloop
  endfacet
  facet normal 0.3826834323650724 -0.9238795325112941 0
    outer loop
      vertex -19.90941333421412 -46.338074039201175 0
      vertex -19.825 -46.303108891324555 0
      vertex -19.825 -46.303108891324555 7
    endloop
  endfacet
  facet normal 0.6087614290087651 -0.7933533402912011 0
    outer loop
      vertex -19.825 -46.303108891324555 0
      vertex -19.75251262658471 -46.24748737341529 0
      vertex -19.75251262658471 -46.24748737341529 7
    endloop
  endfacet
  facet normal 0.7933533402912154 -0.6087614290087463 0
    outer loop
      vertex -19.75251262658471 -46.24748737341529 0
      vertex -19.696891108675445 -46.175 0
      vertex -19.75251262658471 -46.24748737341529 7
    endloop
  endfacet
  facet normal 0.9238795325112825 -0.38268343236509983 0
    outer loop
      vertex -19.696891108675445 -46.175 0
      vertex -19.661925960798825 -46.090586665785885 0
      vertex -19.696891108675445 -46.175 7
    endloop
  endfacet
  facet normal 0.9914448613738097 -0.13052619222005618 0
    outer loop
      vertex -19.661925960798825 -46.090586665785885 0
      vertex -19.65 -46 0
      vertex -19.661925960798825 -46.090586665785885 7
    endloop
  endfacet
  facet normal -0.9914448613738097 0.13052619222005618 0
    outer loop
      vertex -20.35 -46 0
      vertex -20.338074039201175 -45.909413334214115 7
      vertex -20.338074039201175 -45.909413334214115 0
    endloop
  endfacet
  facet normal -0.9238795325112825 0.38268343236509983 0
    outer loop
      vertex -20.338074039201175 -45.909413334214115 0
      vertex -20.303108891324555 -45.825 7
      vertex -20.303108891324555 -45.825 0
    endloop
  endfacet
  facet normal -0.7933533402912154 0.6087614290087463 0
    outer loop
      vertex -20.303108891324555 -45.825 0
      vertex -20.24748737341529 -45.75251262658471 7
      vertex -20.24748737341529 -45.75251262658471 0
    endloop
  endfacet
  facet normal -0.6087614290087651 0.7933533402912011 0
    outer loop
      vertex -20.24748737341529 -45.75251262658471 0
      vertex -20.24748737341529 -45.75251262658471 7
      vertex -20.175 -45.696891108675445 0
    endloop
  endfacet
  facet normal -0.3826834323650724 0.9238795325112941 0
    outer loop
      vertex -20.175 -45.696891108675445 0
      vertex -20.175 -45.696891108675445 7
      vertex -20.09058666578588 -45.661925960798825 0
    endloop
  endfacet
  facet normal -0.1305261922200612 0.991444861373809 0
    outer loop
      vertex -20.09058666578588 -45.661925960798825 0
      vertex -20.09058666578588 -45.661925960798825 7
      vertex -20 -45.65 0
    endloop
  endfacet
  facet normal 0.1305261922200612 0.991444861373809 0
    outer loop
      vertex -20 -45.65 0
      vertex -20 -45.65 7
      vertex -19.90941333421412 -45.661925960798825 0
    endloop
  endfacet
  facet normal 0.9914448613738097 0.13052619222005618 0
    outer loop
      vertex -19.65 -46 0
      vertex -19.661925960798825 -45.909413334214115 0
      vertex -19.65 -46 7
    endloop
  endfacet
  facet normal 0.9238795325112825 0.38268343236509983 0
    outer loop
      vertex -19.661925960798825 -45.909413334214115 0
      vertex -19.696891108675445 -45.825 0
      vertex -19.661925960798825 -45.909413334214115 7
    endloop
  endfacet
  facet normal 0.7933533402912154 0.6087614290087463 0
    outer loop
      vertex -19.696891108675445 -45.825 0
      vertex -19.75251262658471 -45.75251262658471 0
      vertex -19.696891108675445 -45.825 7
    endloop
  endfacet
  facet normal 0.3826834323650724 0.9238795325112941 0
    outer loop
      vertex -19.90941333421412 -45.661925960798825 0
      vertex -19.90941333421412 -45.661925960798825 7
      vertex -19.825 -45.696891108675445 0
    endloop
  endfacet
  facet normal 0.6087614290087651 0.7933533402912011 0
    outer loop
      vertex -19.825 -45.696891108675445 0
      vertex -19.825 -45.696891108675445 7
      vertex -19.75251262658471 -45.75251262658471 0
    endloop
  endfacet
  facet normal -0.9238795325112825 -0.38268343236509983 0
    outer loop
      vertex -20.303108891324555 -46.175 0
      vertex -20.303108891324555 -46.175 7
      vertex -20.338074039201175 -46.090586665785885 7
    endloop
  endfacet
  facet normal -0.9914448613738097 -0.13052619222005618 0
    outer loop
      vertex -20.338074039201175 -46.090586665785885 0
      vertex -20.338074039201175 -46.090586665785885 7
      vertex -20.35 -46 7
    endloop
  endfacet
  facet normal -0.6087614290087651 -0.7933533402912011 0
    outer loop
      vertex -20.24748737341529 -46.24748737341529 0
      vertex -20.175 -46.303108891324555 7
      vertex -20.24748737341529 -46.24748737341529 7
    endloop
  endfacet
  facet normal -0.3826834323650724 -0.9238795325112941 0
    outer loop
      vertex -20.175 -46.303108891324555 0
      vertex -20.09058666578588 -46.338074039201175 7
      vertex -20.175 -46.303108891324555 7
    endloop
  endfacet
  facet normal -0.1305261922200612 -0.991444861373809 0
    outer loop
      vertex -20.09058666578588 -46.338074039201175 0
      vertex -20 -46.35 7
      vertex -20.09058666578588 -46.338074039201175 7
    endloop
  endfacet
  facet normal 0.1305261922200612 -0.991444861373809 0
    outer loop
      vertex -20 -46.35 0
      vertex -19.90941333421412 -46.338074039201175 7
      vertex -20 -46.35 7
    endloop
  endfacet
  facet normal -0.7933533402912154 -0.6087614290087463 0
    outer loop
      vertex -20.24748737341529 -46.24748737341529 0
      vertex -20.24748737341529 -46.24748737341529 7
      vertex -20.303108891324555 -46.175 7
    endloop
  endfacet
  facet normal 0.3826834323650724 -0.9238795325112941 0
    outer loop
      vertex -19.90941333421412 -46.338074039201175 0
      vertex -19.825 -46.303108891324555 7
      vertex -19.90941333421412 -46.338074039201175 7
    endloop
  endfacet
  facet normal 0.6087614290087651 -0.7933533402912011 0
    outer loop
      vertex -19.825 -46.303108891324555 0
      vertex -19.75251262658471 -46.24748737341529 7
      vertex -19.825 -46.303108891324555 7
    endloop
  endfacet
  facet normal 0.7933533402912154 -0.6087614290087463 0
    outer loop
      vertex -19.696891108675445 -46.175 0
      vertex -19.696891108675445 -46.175 7
      vertex -19.75251262658471 -46.24748737341529 7
    endloop
  endfacet
  facet normal 0.9238795325112825 -0.38268343236509983 0
    outer loop
      vertex -19.661925960798825 -46.090586665785885 0
      vertex -19.661925960798825 -46.090586665785885 7
      vertex -19.696891108675445 -46.175 7
    endloop
  endfacet
  facet normal 0.9914448613738097 -0.13052619222005618 0
    outer loop
      vertex -19.65 -46 0
      vertex -19.65 -46 7
      vertex -19.661925960798825 -46.090586665785885 7
    endloop
  endfacet
  facet normal -0.9914448613738097 0.13052619222005618 0
    outer loop
      vertex -20.35 -46 0
      vertex -20.35 -46 7
      vertex -20.338074039201175 -45.909413334214115 7
    endloop
  endfacet
  facet normal -0.9238795325112825 0.38268343236509983 0
    outer loop
      vertex -20.338074039201175 -45.909413334214115 0
      vertex -20.338074039201175 -45.909413334214115 7
      vertex -20.303108891324555 -45.825 7
    endloop
  endfacet
  facet normal -0.7933533402912154 0.6087614290087463 0
    outer loop
      vertex -20.303108891324555 -45.825 0
      vertex -20.303108891324555 -45.825 7
      vertex -20.24748737341529 -45.75251262658471 7
    endloop
  endfacet
  facet normal -0.6087614290087651 0.7933533402912011 0
    outer loop
      vertex -20.175 -45.696891108675445 0
      vertex -20.24748737341529 -45.75251262658471 7
      vertex -20.175 -45.696891108675445 7
    endloop
  endfacet
  facet normal -0.3826834323650724 0.9238795325112941 0
    outer loop
      vertex -20.09058666578588 -45.661925960798825 0
      vertex -20.175 -45.696891108675445 7
      vertex -20.09058666578588 -45.661925960798825 7
    endloop
  endfacet
  facet normal -0.1305261922200612 0.991444861373809 0
    outer loop
      vertex -20 -45.65 0
      vertex -20.09058666578588 -45.661925960798825 7
      vertex -20 -45.65 7
    endloop
  endfacet
  facet normal 0.1305261922200612 0.991444861373809 0
    outer loop
      vertex -19.90941333421412 -45.661925960798825 0
      vertex -20 -45.65 7
      vertex -19.90941333421412 -45.661925960798825 7
    endloop
  endfacet
  facet normal 0.9914448613738097 0.13052619222005618 0
    outer loop
      vertex -19.661925960798825 -45.909413334214115 0
      vertex -19.661925960798825 -45.909413334214115 7
      vertex -19.65 -46 7
    endloop
  endfacet
  facet normal 0.9238795325112825 0.38268343236509983 0
    outer loop
      vertex -19.696891108675445 -45.825 0
      vertex -19.696891108675445 -45.825 7
      vertex -19.661925960798825 -45.909413334214115 7
    endloop
  endfacet
  facet normal 0.7933533402912154 0.6087614290087463 0
    outer loop
      vertex -19.75251262658471 -45.75251262658471 0
      vertex -19.75251262658471 -45.75251262658471 7
      vertex -19.696891108675445 -45.825 7
    endloop
  endfacet
  facet normal 0.3826834323650724 0.9238795325112941 0
    outer loop
      vertex -19.825 -45.696891108675445 0
      vertex -19.90941333421412 -45.661925960798825 7
      vertex -19.825 -45.696891108675445 7
    endloop
  endfacet
  facet normal 0.6087614290087651 0.7933533402912011 0
    outer loop
      vertex -19.75251262658471 -45.75251262658471 0
      vertex -19.825 -45.696891108675445 7
      vertex -19.75251262658471 -45.75251262658471 7
    endloop
  endfacet
  facet normal 0 0 -1
    outer loop
      vertex -2.3031088913245537 -58.175 0
      vertex -2.3380740392011745 -58.090586665785885 0
      vertex -2.3031088913245537 -57.825 0
    endloop
  endfacet
  facet normal 0 0 -1
    outer loop
      vertex -2.247487373415291 -58.24748737341529 0
      vertex -2.3031088913245537 -58.175 0
      vertex -2.247487373415291 -57.75251262658471 0
    endloop
  endfacet
  facet normal 0 0 -1
    outer loop
      vertex -2.247487373415291 -58.24748737341529 0
      vertex -2.1750000000000007 -57.696891108675445 0
      vertex -2.1750000000000007 -58.303108891324555 0
    endloop
  endfacet
  facet normal 0 0 -1
    outer loop
      vertex -2.1750000000000007 -58.303108891324555 0
      vertex -2.0905866657858816 -57.661925960798825 0
      vertex -2.0905866657858816 -58.338074039201175 0
    endloop
  endfacet
  facet normal 0 0 -1
    outer loop
      vertex -2.0905866657858816 -58.338074039201175 0
      vertex -2 -57.65 0
      vertex -2 -58.35 0
    endloop
  endfacet
  facet normal 0 0 -1
    outer loop
      vertex -2 -58.35 0
      vertex -1.9094133342141184 -57.661925960798825 0
      vertex -1.9094133342141184 -58.338074039201175 0
    endloop
  endfacet
  facet normal 0 0 -1
    outer loop
      vertex -1.9094133342141184 -58.338074039201175 0
      vertex -1.8249999999999993 -57.696891108675445 0
      vertex -1.8249999999999993 -58.303108891324555 0
    endloop
  endfacet
  facet normal 0 0 -1
    outer loop
      vertex -1.8249999999999993 -58.303108891324555 0
      vertex -1.7525126265847089 -57.75251262658471 0
      vertex -1.7525126265847089 -58.24748737341529 0
    endloop
  endfacet
  facet normal 0 0 -1
    outer loop
      vertex -1.7525126265847089 -58.24748737341529 0
      vertex -1.6968911086754463 -57.825 0
      vertex -1.6968911086754463 -58.175 0
    endloop
  endfacet
  facet normal 0 0 -1
    outer loop
      vertex -1.6968911086754463 -58.175 0
      vertex -1.6619259607988255 -57.909413334214115 0
      vertex -1.6619259607988255 -58.090586665785885 0
    endloop
  endfacet
  facet normal 0 0 -1
    outer loop
      vertex -2.3380740392011745 -58.090586665785885 0
      vertex -2.3499999999999996 -58 0
      vertex -2.3380740392011745 -57.909413334214115 0
    endloop
  endfacet
  facet normal 0 0 -1
    outer loop
      vertex -2.3380740392011745 -58.090586665785885 0
      vertex -2.3380740392011745 -57.909413334214115 0
      vertex -2.3031088913245537 -57.825 0
    endloop
  endfacet
  facet normal 0 0 -1
    outer loop
      vertex -2.3031088913245537 -58.175 0
      vertex -2.3031088913245537 -57.825 0
      vertex -2.247487373415291 -57.75251262658471 0
    endloop
  endfacet
  facet normal 0 0 -1
    outer loop
      vertex -2.247487373415291 -58.24748737341529 0
      vertex -2.247487373415291 -57.75251262658471 0
      vertex -2.1750000000000007 -57.696891108675445 0
    endloop
  endfacet
  facet normal 0 0 -1
    outer loop
      vertex -2.1750000000000007 -58.303108891324555 0
      vertex -2.1750000000000007 -57.696891108675445 0
      vertex -2.0905866657858816 -57.661925960798825 0
    endloop
  endfacet
  facet normal 0 0 -1
    outer loop
      vertex -2.0905866657858816 -58.338074039201175 0
      vertex -2.0905866657858816 -57.661925960798825 0
      vertex -2 -57.65 0
    endloop
  endfacet
  facet normal 0 0 -1
    outer loop
      vertex -2 -58.35 0
      vertex -2 -57.65 0
      vertex -1.9094133342141184 -57.661925960798825 0
    endloop
  endfacet
  facet normal 0 0 -1
    outer loop
      vertex -1.9094133342141184 -58.338074039201175 0
      vertex -1.9094133342141184 -57.661925960798825 0
      vertex -1.8249999999999993 -57.696891108675445 0
    endloop
  endfacet
  facet normal 0 0 -1
    outer loop
      vertex -1.7525126265847089 -58.24748737341529 0
      vertex -1.7525126265847089 -57.75251262658471 0
      vertex -1.6968911086754463 -57.825 0
    endloop
  endfacet
  facet normal 0 0 -1
    outer loop
      vertex -1.8249999999999993 -58.303108891324555 0
      vertex -1.8249999999999993 -57.696891108675445 0
      vertex -1.7525126265847089 -57.75251262658471 0
    endloop
  endfacet
  facet normal 0 0 -1
    outer loop
      vertex -1.6968911086754463 -58.175 0
      vertex -1.6968911086754463 -57.825 0
      vertex -1.6619259607988255 -57.909413334214115 0
    endloop
  endfacet
  facet normal 0 0 -1
    outer loop
      vertex -1.6619259607988255 -58.090586665785885 0
      vertex -1.6619259607988255 -57.909413334214115 0
      vertex -1.6500000000000004 -58 0
    endloop
  endfacet
  facet normal -0.6087614290087557 -0.7933533402912083 0
    outer loop
      vertex -2.247487373415291 -58.24748737341529 0
      vertex -2.1750000000000007 -58.303108891324555 0
      vertex -2.1750000000000007 -58.303108891324555 7
    endloop
  endfacet
  facet normal -0.3826834323650724 -0.9238795325112941 0
    outer loop
      vertex -2.1750000000000007 -58.303108891324555 0
      vertex -2.0905866657858816 -58.338074039201175 0
      vertex -2.0905866657858816 -58.338074039201175 7
    endloop
  endfacet
  facet normal -0.7933533402912343 -0.6087614290087219 0
    outer loop
      vertex -2.247487373415291 -58.24748737341529 0
      vertex -2.3031088913245537 -58.175 7
      vertex -2.3031088913245537 -58.175 0
    endloop
  endfacet
  facet normal -0.9238795325112757 -0.3826834323651165 0
    outer loop
      vertex -2.3031088913245537 -58.175 0
      vertex -2.3380740392011745 -58.090586665785885 7
      vertex -2.3380740392011745 -58.090586665785885 0
    endloop
  endfacet
  facet normal -0.9914448613738123 -0.13052619222003708 0
    outer loop
      vertex -2.3380740392011745 -58.090586665785885 0
      vertex -2.3499999999999996 -58 7
      vertex -2.3499999999999996 -58 0
    endloop
  endfacet
  facet normal -0.1305261922200612 -0.991444861373809 0
    outer loop
      vertex -2.0905866657858816 -58.338074039201175 0
      vertex -2 -58.35 0
      vertex -2 -58.35 7
    endloop
  endfacet
  facet normal 0.1305261922200612 -0.991444861373809 0
    outer loop
      vertex -2 -58.35 0
      vertex -1.9094133342141184 -58.338074039201175 0
      vertex -1.9094133342141184 -58.338074039201175 7
    endloop
  endfacet
  facet normal 0.3826834323650724 -0.9238795325112941 0
    outer loop
      vertex -1.9094133342141184 -58.338074039201175 0
      vertex -1.8249999999999993 -58.303108891324555 0
      vertex -1.8249999999999993 -58.303108891324555 7
    endloop
  endfacet
  facet normal 0.6087614290087557 -0.7933533402912083 0
    outer loop
      vertex -1.8249999999999993 -58.303108891324555 0
      vertex -1.7525126265847089 -58.24748737341529 0
      vertex -1.7525126265847089 -58.24748737341529 7
    endloop
  endfacet
  facet normal 0.7933533402912343 -0.6087614290087219 0
    outer loop
      vertex -1.7525126265847089 -58.24748737341529 0
      vertex -1.6968911086754463 -58.175 0
      vertex -1.7525126265847089 -58.24748737341529 7
    endloop
  endfacet
  facet normal 0.9238795325112757 -0.3826834323651165 0
    outer loop
      vertex -1.6968911086754463 -58.175 0
      vertex -1.6619259607988255 -58.090586665785885 0
      vertex -1.6968911086754463 -58.175 7
    endloop
  endfacet
  facet normal 0.9914448613738123 -0.13052619222003708 0
    outer loop
      vertex -1.6619259607988255 -58.090586665785885 0
      vertex -1.6500000000000004 -58 0
      vertex -1.6619259607988255 -58.090586665785885 7
    endloop
  endfacet
  facet normal -0.9914448613738123 0.13052619222003708 0
    outer loop
      vertex -2.3499999999999996 -58 0
      vertex -2.3380740392011745 -57.909413334214115 7
      vertex -2.3380740392011745 -57.909413334214115 0
    endloop
  endfacet
  facet normal -0.9238795325112757 0.3826834323651165 0
    outer loop
      vertex -2.3380740392011745 -57.909413334214115 0
      vertex -2.3031088913245537 -57.825 7
      vertex -2.3031088913245537 -57.825 0
    endloop
  endfacet
  facet normal -0.7933533402912343 0.6087614290087219 0
    outer loop
      vertex -2.3031088913245537 -57.825 0
      vertex -2.247487373415291 -57.75251262658471 7
      vertex -2.247487373415291 -57.75251262658471 0
    endloop
  endfacet
  facet normal -0.6087614290087557 0.7933533402912083 0
    outer loop
      vertex -2.247487373415291 -57.75251262658471 0
      vertex -2.247487373415291 -57.75251262658471 7
      vertex -2.1750000000000007 -57.696891108675445 0
    endloop
  endfacet
  facet normal -0.3826834323650724 0.9238795325112941 0
    outer loop
      vertex -2.1750000000000007 -57.696891108675445 0
      vertex -2.1750000000000007 -57.696891108675445 7
      vertex -2.0905866657858816 -57.661925960798825 0
    endloop
  endfacet
  facet normal -0.1305261922200612 0.991444861373809 0
    outer loop
      vertex -2.0905866657858816 -57.661925960798825 0
      vertex -2.0905866657858816 -57.661925960798825 7
      vertex -2 -57.65 0
    endloop
  endfacet
  facet normal 0.1305261922200612 0.991444861373809 0
    outer loop
      vertex -2 -57.65 0
      vertex -2 -57.65 7
      vertex -1.9094133342141184 -57.661925960798825 0
    endloop
  endfacet
  facet normal 0.3826834323650724 0.9238795325112941 0
    outer loop
      vertex -1.9094133342141184 -57.661925960798825 0
      vertex -1.9094133342141184 -57.661925960798825 7
      vertex -1.8249999999999993 -57.696891108675445 0
    endloop
  endfacet
  facet normal 0.6087614290087557 0.7933533402912083 0
    outer loop
      vertex -1.8249999999999993 -57.696891108675445 0
      vertex -1.8249999999999993 -57.696891108675445 7
      vertex -1.7525126265847089 -57.75251262658471 0
    endloop
  endfacet
  facet normal 0.9914448613738123 0.13052619222003708 0
    outer loop
      vertex -1.6500000000000004 -58 0
      vertex -1.6619259607988255 -57.909413334214115 0
      vertex -1.6500000000000004 -58 7
    endloop
  endfacet
  facet normal 0.9238795325112757 0.3826834323651165 0
    outer loop
      vertex -1.6619259607988255 -57.909413334214115 0
      vertex -1.6968911086754463 -57.825 0
      vertex -1.6619259607988255 -57.909413334214115 7
    endloop
  endfacet
  facet normal 0.7933533402912343 0.6087614290087219 0
    outer loop
      vertex -1.6968911086754463 -57.825 0
      vertex -1.7525126265847089 -57.75251262658471 0
      vertex -1.6968911086754463 -57.825 7
    endloop
  endfacet
  facet normal -0.6087614290087557 -0.7933533402912083 0
    outer loop
      vertex -2.247487373415291 -58.24748737341529 0
      vertex -2.1750000000000007 -58.303108891324555 7
      vertex -2.247487373415291 -58.24748737341529 7
    endloop
  endfacet
  facet normal -0.3826834323650724 -0.9238795325112941 0
    outer loop
      vertex -2.1750000000000007 -58.303108891324555 0
      vertex -2.0905866657858816 -58.338074039201175 7
      vertex -2.1750000000000007 -58.303108891324555 7
    endloop
  endfacet
  facet normal -0.7933533402912343 -0.6087614290087219 0
    outer loop
      vertex -2.247487373415291 -58.24748737341529 0
      vertex -2.247487373415291 -58.24748737341529 7
      vertex -2.3031088913245537 -58.175 7
    endloop
  endfacet
  facet normal -0.9238795325112757 -0.3826834323651165 0
    outer loop
      vertex -2.3031088913245537 -58.175 0
      vertex -2.3031088913245537 -58.175 7
      vertex -2.3380740392011745 -58.090586665785885 7
    endloop
  endfacet
  facet normal -0.9914448613738123 -0.13052619222003708 0
    outer loop
      vertex -2.3380740392011745 -58.090586665785885 0
      vertex -2.3380740392011745 -58.090586665785885 7
      vertex -2.3499999999999996 -58 7
    endloop
  endfacet
  facet normal -0.1305261922200612 -0.991444861373809 0
    outer loop
      vertex -2.0905866657858816 -58.338074039201175 0
      vertex -2 -58.35 7
      vertex -2.0905866657858816 -58.338074039201175 7
    endloop
  endfacet
  facet normal 0.1305261922200612 -0.991444861373809 0
    outer loop
      vertex -2 -58.35 0
      vertex -1.9094133342141184 -58.338074039201175 7
      vertex -2 -58.35 7
    endloop
  endfacet
  facet normal 0.3826834323650724 -0.9238795325112941 0
    outer loop
      vertex -1.9094133342141184 -58.338074039201175 0
      vertex -1.8249999999999993 -58.303108891324555 7
      vertex -1.9094133342141184 -58.338074039201175 7
    endloop
  endfacet
  facet normal 0.6087614290087557 -0.7933533402912083 0
    outer loop
      vertex -1.8249999999999993 -58.303108891324555 0
      vertex -1.7525126265847089 -58.24748737341529 7
      vertex -1.8249999999999993 -58.303108891324555 7
    endloop
  endfacet
  facet normal 0.7933533402912343 -0.6087614290087219 0
    outer loop
      vertex -1.6968911086754463 -58.175 0
      vertex -1.6968911086754463 -58.175 7
      vertex -1.7525126265847089 -58.24748737341529 7
    endloop
  endfacet
  facet normal 0.9238795325112757 -0.3826834323651165 0
    outer loop
      vertex -1.6619259607988255 -58.090586665785885 0
      vertex -1.6619259607988255 -58.090586665785885 7
      vertex -1.6968911086754463 -58.175 7
    endloop
  endfacet
  facet normal 0.9914448613738123 -0.13052619222003708 0
    outer loop
      vertex -1.6500000000000004 -58 0
      vertex -1.6500000000000004 -58 7
      vertex -1.6619259607988255 -58.090586665785885 7
    endloop
  endfacet
  facet normal -0.9914448613738123 0.13052619222003708 0
    outer loop
      vertex -2.3499999999999996 -58 0
      vertex -2.3499999999999996 -58 7
      vertex -2.3380740392011745 -57.909413334214115 7
    endloop
  endfacet
  facet normal -0.9238795325112757 0.3826834323651165 0
    outer loop
      vertex -2.3380740392011745 -57.909413334214115 0
      vertex -2.3380740392011745 -57.909413334214115 7
      vertex -2.3031088913245537 -57.825 7
    endloop
  endfacet
  facet normal -0.7933533402912343 0.6087614290087219 0
    outer loop
      vertex -2.3031088913245537 -57.825 0
      vertex -2.3031088913245537 -57.825 7
      vertex -2.247487373415291 -57.75251262658471 7
    endloop
  endfacet
  facet normal -0.6087614290087557 0.7933533402912083 0
    outer loop
      vertex -2.1750000000000007 -57.696891108675445 0
      vertex -2.247487373415291 -57.75251262658471 7
      vertex -2.1750000000000007 -57.696891108675445 7
    endloop
  endfacet
  facet normal -0.3826834323650724 0.9238795325112941 0
    outer loop
      vertex -2.0905866657858816 -57.661925960798825 0
      vertex -2.1750000000000007 -57.696891108675445 7
      vertex -2.0905866657858816 -57.661925960798825 7
    endloop
  endfacet
  facet normal 0.7933533402912343 0.6087614290087219 0
    outer loop
      vertex -1.7525126265847089 -57.75251262658471 0
      vertex -1.7525126265847089 -57.75251262658471 7
      vertex -1.6968911086754463 -57.825 7
    endloop
  endfacet
  facet normal -0.1305261922200612 0.991444861373809 0
    outer loop
      vertex -2 -57.65 0
      vertex -2.0905866657858816 -57.661925960798825 7
      vertex -2 -57.65 7
    endloop
  endfacet
  facet normal 0.1305261922200612 0.991444861373809 0
    outer loop
      vertex -1.9094133342141184 -57.661925960798825 0
      vertex -2 -57.65 7
      vertex -1.9094133342141184 -57.661925960798825 7
    endloop
  endfacet
  facet normal 0.3826834323650724 0.9238795325112941 0
    outer loop
      vertex -1.8249999999999993 -57.696891108675445 0
      vertex -1.9094133342141184 -57.661925960798825 7
      vertex -1.8249999999999993 -57.696891108675445 7
    endloop
  endfacet
  facet normal 0.6087614290087557 0.7933533402912083 0
    outer loop
      vertex -1.7525126265847089 -57.75251262658471 0
      vertex -1.8249999999999993 -57.696891108675445 7
      vertex -1.7525126265847089 -57.75251262658471 7
    endloop
  endfacet
  facet normal 0.9914448613738123 0.13052619222003708 0
    outer loop
      vertex -1.6619259607988255 -57.909413334214115 0
      vertex -1.6619259607988255 -57.909413334214115 7
      vertex -1.6500000000000004 -58 7
    endloop
  endfacet
  facet normal 0.9238795325112757 0.3826834323651165 0
    outer loop
      vertex -1.6968911086754463 -57.825 0
      vertex -1.6968911086754463 -57.825 7
      vertex -1.6619259607988255 -57.909413334214115 7
    endloop
  endfacet
  facet normal 0 0 -1
    outer loop
      vertex -2.3031088913245537 -46.175 0
      vertex -2.3380740392011745 -46.090586665785885 0
      vertex -2.3031088913245537 -45.825 0
    endloop
  endfacet
  facet normal 0 0 -1
    outer loop
      vertex -2.247487373415291 -46.24748737341529 0
      vertex -2.3031088913245537 -46.175 0
      vertex -2.247487373415291 -45.75251262658471 0
    endloop
  endfacet
  facet normal 0 0 -1
    outer loop
      vertex -2.247487373415291 -46.24748737341529 0
      vertex -2.1750000000000007 -45.696891108675445 0
      vertex -2.1750000000000007 -46.303108891324555 0
    endloop
  endfacet
  facet normal 0 0 -1
    outer loop
      vertex -2.1750000000000007 -46.303108891324555 0
      vertex -2.0905866657858816 -45.661925960798825 0
      vertex -2.0905866657858816 -46.338074039201175 0
    endloop
  endfacet
  facet normal 0 0 -1
    outer loop
      vertex -2.0905866657858816 -46.338074039201175 0
      vertex -2 -45.65 0
      vertex -2 -46.35 0
    endloop
  endfacet
  facet normal 0 0 -1
    outer loop
      vertex -2 -46.35 0
      vertex -1.9094133342141184 -45.661925960798825 0
      vertex -1.9094133342141184 -46.338074039201175 0
    endloop
  endfacet
  facet normal 0 0 -1
    outer loop
      vertex -1.9094133342141184 -46.338074039201175 0
      vertex -1.8249999999999993 -45.696891108675445 0
      vertex -1.8249999999999993 -46.303108891324555 0
    endloop
  endfacet
  facet normal 0 0 -1
    outer loop
      vertex -1.8249999999999993 -46.303108891324555 0
      vertex -1.7525126265847089 -45.75251262658471 0
      vertex -1.7525126265847089 -46.24748737341529 0
    endloop
  endfacet
  facet normal 0 0 -1
    outer loop
      vertex -1.7525126265847089 -46.24748737341529 0
      vertex -1.6968911086754463 -45.825 0
      vertex -1.6968911086754463 -46.175 0
    endloop
  endfacet
  facet normal 0 0 -1
    outer loop
      vertex -1.6968911086754463 -46.175 0
      vertex -1.6619259607988255 -45.909413334214115 0
      vertex -1.6619259607988255 -46.090586665785885 0
    endloop
  endfacet
  facet normal 0 0 -1
    outer loop
      vertex -2.3380740392011745 -46.090586665785885 0
      vertex -2.3499999999999996 -46 0
      vertex -2.3380740392011745 -45.909413334214115 0
    endloop
  endfacet
  facet normal 0 0 -1
    outer loop
      vertex -2.3380740392011745 -46.090586665785885 0
      vertex -2.3380740392011745 -45.909413334214115 0
      vertex -2.3031088913245537 -45.825 0
    endloop
  endfacet
  facet normal 0 0 -1
    outer loop
      vertex -2.3031088913245537 -46.175 0
      vertex -2.3031088913245537 -45.825 0
      vertex -2.247487373415291 -45.75251262658471 0
    endloop
  endfacet
  facet normal 0 0 -1
    outer loop
      vertex -2.247487373415291 -46.24748737341529 0
      vertex -2.247487373415291 -45.75251262658471 0
      vertex -2.1750000000000007 -45.696891108675445 0
    endloop
  endfacet
  facet normal 0 0 -1
    outer loop
      vertex -2.1750000000000007 -46.303108891324555 0
      vertex -2.1750000000000007 -45.696891108675445 0
      vertex -2.0905866657858816 -45.661925960798825 0
    endloop
  endfacet
  facet normal 0 0 -1
    outer loop
      vertex -2.0905866657858816 -46.338074039201175 0
      vertex -2.0905866657858816 -45.661925960798825 0
      vertex -2 -45.65 0
    endloop
  endfacet
  facet normal 0 0 -1
    outer loop
      vertex -2 -46.35 0
      vertex -2 -45.65 0
      vertex -1.9094133342141184 -45.661925960798825 0
    endloop
  endfacet
  facet normal 0 0 -1
    outer loop
      vertex -1.9094133342141184 -46.338074039201175 0
      vertex -1.9094133342141184 -45.661925960798825 0
      vertex -1.8249999999999993 -45.696891108675445 0
    endloop
  endfacet
  facet normal 0 0 -1
    outer loop
      vertex -1.7525126265847089 -46.24748737341529 0
      vertex -1.7525126265847089 -45.75251262658471 0
      vertex -1.6968911086754463 -45.825 0
    endloop
  endfacet
  facet normal 0 0 -1
    outer loop
      vertex -1.8249999999999993 -46.303108891324555 0
      vertex -1.8249999999999993 -45.696891108675445 0
      vertex -1.7525126265847089 -45.75251262658471 0
    endloop
  endfacet
  facet normal 0 0 -1
    outer loop
      vertex -1.6968911086754463 -46.175 0
      vertex -1.6968911086754463 -45.825 0
      vertex -1.6619259607988255 -45.909413334214115 0
    endloop
  endfacet
  facet normal 0 0 -1
    outer loop
      vertex -1.6619259607988255 -46.090586665785885 0
      vertex -1.6619259607988255 -45.909413334214115 0
      vertex -1.6500000000000004 -46 0
    endloop
  endfacet
  facet normal -0.6087614290087557 -0.7933533402912083 0
    outer loop
      vertex -2.247487373415291 -46.24748737341529 0
      vertex -2.1750000000000007 -46.303108891324555 0
      vertex -2.1750000000000007 -46.303108891324555 7
    endloop
  endfacet
  facet normal -0.3826834323650724 -0.9238795325112941 0
    outer loop
      vertex -2.1750000000000007 -46.303108891324555 0
      vertex -2.0905866657858816 -46.338074039201175 0
      vertex -2.0905866657858816 -46.338074039201175 7
    endloop
  endfacet
  facet normal -0.7933533402912343 -0.6087614290087219 0
    outer loop
      vertex -2.247487373415291 -46.24748737341529 0
      vertex -2.3031088913245537 -46.175 7
      vertex -2.3031088913245537 -46.175 0
    endloop
  endfacet
  facet normal -0.9238795325112757 -0.3826834323651165 0
    outer loop
      vertex -2.3031088913245537 -46.175 0
      vertex -2.3380740392011745 -46.090586665785885 7
      vertex -2.3380740392011745 -46.090586665785885 0
    endloop
  endfacet
  facet normal -0.9914448613738123 -0.13052619222003708 0
    outer loop
      vertex -2.3380740392011745 -46.090586665785885 0
      vertex -2.3499999999999996 -46 7
      vertex -2.3499999999999996 -46 0
    endloop
  endfacet
  facet normal -0.1305261922200612 -0.991444861373809 0
    outer loop
      vertex -2.0905866657858816 -46.338074039201175 0
      vertex -2 -46.35 0
      vertex -2 -46.35 7
    endloop
  endfacet
  facet normal 0.1305261922200612 -0.991444861373809 0
    outer loop
      vertex -2 -46.35 0
      vertex -1.9094133342141184 -46.338074039201175 0
      vertex -1.9094133342141184 -46.338074039201175 7
    endloop
  endfacet
  facet normal 0.3826834323650724 -0.9238795325112941 0
    outer loop
      vertex -1.9094133342141184 -46.338074039201175 0
      vertex -1.8249999999999993 -46.303108891324555 0
      vertex -1.8249999999999993 -46.303108891324555 7
    endloop
  endfacet
  facet normal 0.6087614290087557 -0.7933533402912083 0
    outer loop
      vertex -1.8249999999999993 -46.303108891324555 0
      vertex -1.7525126265847089 -46.24748737341529 0
      vertex -1.7525126265847089 -46.24748737341529 7
    endloop
  endfacet
  facet normal 0.7933533402912343 -0.6087614290087219 0
    outer loop
      vertex -1.7525126265847089 -46.24748737341529 0
      vertex -1.6968911086754463 -46.175 0
      vertex -1.7525126265847089 -46.24748737341529 7
    endloop
  endfacet
  facet normal 0.9238795325112757 -0.3826834323651165 0
    outer loop
      vertex -1.6968911086754463 -46.175 0
      vertex -1.6619259607988255 -46.090586665785885 0
      vertex -1.6968911086754463 -46.175 7
    endloop
  endfacet
  facet normal 0.9914448613738123 -0.13052619222003708 0
    outer loop
      vertex -1.6619259607988255 -46.090586665785885 0
      vertex -1.6500000000000004 -46 0
      vertex -1.6619259607988255 -46.090586665785885 7
    endloop
  endfacet
  facet normal -0.9914448613738123 0.13052619222003708 0
    outer loop
      vertex -2.3499999999999996 -46 0
      vertex -2.3380740392011745 -45.909413334214115 7
      vertex -2.3380740392011745 -45.909413334214115 0
    endloop
  endfacet
  facet normal -0.9238795325112757 0.3826834323651165 0
    outer loop
      vertex -2.3380740392011745 -45.909413334214115 0
      vertex -2.3031088913245537 -45.825 7
      vertex -2.3031088913245537 -45.825 0
    endloop
  endfacet
  facet normal -0.7933533402912343 0.6087614290087219 0
    outer loop
      vertex -2.3031088913245537 -45.825 0
      vertex -2.247487373415291 -45.75251262658471 7
      vertex -2.247487373415291 -45.75251262658471 0
    endloop
  endfacet
  facet normal -0.6087614290087557 0.7933533402912083 0
    outer loop
      vertex -2.247487373415291 -45.75251262658471 0
      vertex -2.247487373415291 -45.75251262658471 7
      vertex -2.1750000000000007 -45.696891108675445 0
    endloop
  endfacet
  facet normal -0.3826834323650724 0.9238795325112941 0
    outer loop
      vertex -2.1750000000000007 -45.696891108675445 0
      vertex -2.1750000000000007 -45.696891108675445 7
      vertex -2.0905866657858816 -45.661925960798825 0
    endloop
  endfacet
  facet normal -0.1305261922200612 0.991444861373809 0
    outer loop
      vertex -2.0905866657858816 -45.661925960798825 0
      vertex -2.0905866657858816 -45.661925960798825 7
      vertex -2 -45.65 0
    endloop
  endfacet
  facet normal 0.1305261922200612 0.991444861373809 0
    outer loop
      vertex -2 -45.65 0
      vertex -2 -45.65 7
      vertex -1.9094133342141184 -45.661925960798825 0
    endloop
  endfacet
  facet normal 0.3826834323650724 0.9238795325112941 0
    outer loop
      vertex -1.9094133342141184 -45.661925960798825 0
      vertex -1.9094133342141184 -45.661925960798825 7
      vertex -1.8249999999999993 -45.696891108675445 0
    endloop
  endfacet
  facet normal 0.6087614290087557 0.7933533402912083 0
    outer loop
      vertex -1.8249999999999993 -45.696891108675445 0
      vertex -1.8249999999999993 -45.696891108675445 7
      vertex -1.7525126265847089 -45.75251262658471 0
    endloop
  endfacet
  facet normal 0.9914448613738123 0.13052619222003708 0
    outer loop
      vertex -1.6500000000000004 -46 0
      vertex -1.6619259607988255 -45.909413334214115 0
      vertex -1.6500000000000004 -46 7
    endloop
  endfacet
  facet normal 0.9238795325112757 0.3826834323651165 0
    outer loop
      vertex -1.6619259607988255 -45.909413334214115 0
      vertex -1.6968911086754463 -45.825 0
      vertex -1.6619259607988255 -45.909413334214115 7
    endloop
  endfacet
  facet normal 0.7933533402912343 0.6087614290087219 0
    outer loop
      vertex -1.7525126265847089 -45.75251262658471 0
      vertex -1.6968911086754463 -45.825 7
      vertex -1.6968911086754463 -45.825 0
    endloop
  endfacet
  facet normal -0.6087614290087557 -0.7933533402912083 0
    outer loop
      vertex -2.247487373415291 -46.24748737341529 0
      vertex -2.1750000000000007 -46.303108891324555 7
      vertex -2.247487373415291 -46.24748737341529 7
    endloop
  endfacet
  facet normal -0.3826834323650724 -0.9238795325112941 0
    outer loop
      vertex -2.1750000000000007 -46.303108891324555 0
      vertex -2.0905866657858816 -46.338074039201175 7
      vertex -2.1750000000000007 -46.303108891324555 7
    endloop
  endfacet
  facet normal -0.7933533402912343 -0.6087614290087219 0
    outer loop
      vertex -2.247487373415291 -46.24748737341529 0
      vertex -2.247487373415291 -46.24748737341529 7
      vertex -2.3031088913245537 -46.175 7
    endloop
  endfacet
  facet normal -0.9238795325112757 -0.3826834323651165 0
    outer loop
      vertex -2.3031088913245537 -46.175 0
      vertex -2.3031088913245537 -46.175 7
      vertex -2.3380740392011745 -46.090586665785885 7
    endloop
  endfacet
  facet normal -0.9914448613738123 -0.13052619222003708 0
    outer loop
      vertex -2.3380740392011745 -46.090586665785885 0
      vertex -2.3380740392011745 -46.090586665785885 7
      vertex -2.3499999999999996 -46 7
    endloop
  endfacet
  facet normal -0.1305261922200612 -0.991444861373809 0
    outer loop
      vertex -2.0905866657858816 -46.338074039201175 0
      vertex -2 -46.35 7
      vertex -2.0905866657858816 -46.338074039201175 7
    endloop
  endfacet
  facet normal 0.1305261922200612 -0.991444861373809 0
    outer loop
      vertex -2 -46.35 0
      vertex -1.9094133342141184 -46.338074039201175 7
      vertex -2 -46.35 7
    endloop
  endfacet
  facet normal 0.3826834323650724 -0.9238795325112941 0
    outer loop
      vertex -1.9094133342141184 -46.338074039201175 0
      vertex -1.8249999999999993 -46.303108891324555 7
      vertex -1.9094133342141184 -46.338074039201175 7
    endloop
  endfacet
  facet normal 0.6087614290087557 -0.7933533402912083 0
    outer loop
      vertex -1.8249999999999993 -46.303108891324555 0
      vertex -1.7525126265847089 -46.24748737341529 7
      vertex -1.8249999999999993 -46.303108891324555 7
    endloop
  endfacet
  facet normal 0.7933533402912343 -0.6087614290087219 0
    outer loop
      vertex -1.6968911086754463 -46.175 0
      vertex -1.6968911086754463 -46.175 7
      vertex -1.7525126265847089 -46.24748737341529 7
    endloop
  endfacet
  facet normal 0.9238795325112757 -0.3826834323651165 0
    outer loop
      vertex -1.6619259607988255 -46.090586665785885 0
      vertex -1.6619259607988255 -46.090586665785885 7
      vertex -1.6968911086754463 -46.175 7
    endloop
  endfacet
  facet normal 0.9914448613738123 -0.13052619222003708 0
    outer loop
      vertex -1.6500000000000004 -46 0
      vertex -1.6500000000000004 -46 7
      vertex -1.6619259607988255 -46.090586665785885 7
    endloop
  endfacet
  facet normal -0.9914448613738123 0.13052619222003708 0
    outer loop
      vertex -2.3499999999999996 -46 0
      vertex -2.3499999999999996 -46 7
      vertex -2.3380740392011745 -45.909413334214115 7
    endloop
  endfacet
  facet normal -0.9238795325112757 0.3826834323651165 0
    outer loop
      vertex -2.3380740392011745 -45.909413334214115 0
      vertex -2.3380740392011745 -45.909413334214115 7
      vertex -2.3031088913245537 -45.825 7
    endloop
  endfacet
  facet normal -0.7933533402912343 0.6087614290087219 0
    outer loop
      vertex -2.3031088913245537 -45.825 0
      vertex -2.3031088913245537 -45.825 7
      vertex -2.247487373415291 -45.75251262658471 7
    endloop
  endfacet
  facet normal -0.6087614290087557 0.7933533402912083 0
    outer loop
      vertex -2.1750000000000007 -45.696891108675445 0
      vertex -2.247487373415291 -45.75251262658471 7
      vertex -2.1750000000000007 -45.696891108675445 7
    endloop
  endfacet
  facet normal -0.3826834323650724 0.9238795325112941 0
    outer loop
      vertex -2.0905866657858816 -45.661925960798825 0
      vertex -2.1750000000000007 -45.696891108675445 7
      vertex -2.0905866657858816 -45.661925960798825 7
    endloop
  endfacet
  facet normal 0.7933533402912343 0.6087614290087219 0
    outer loop
      vertex -1.7525126265847089 -45.75251262658471 0
      vertex -1.7525126265847089 -45.75251262658471 7
      vertex -1.6968911086754463 -45.825 7
    endloop
  endfacet
  facet normal -0.1305261922200612 0.991444861373809 0
    outer loop
      vertex -2 -45.65 0
      vertex -2.0905866657858816 -45.661925960798825 7
      vertex -2 -45.65 7
    endloop
  endfacet
  facet normal 0.1305261922200612 0.991444861373809 0
    outer loop
      vertex -1.9094133342141184 -45.661925960798825 0
      vertex -2 -45.65 7
      vertex -1.9094133342141184 -45.661925960798825 7
    endloop
  endfacet
  facet normal 0.3826834323650724 0.9238795325112941 0
    outer loop
      vertex -1.8249999999999993 -45.696891108675445 0
      vertex -1.9094133342141184 -45.661925960798825 7
      vertex -1.8249999999999993 -45.696891108675445 7
    endloop
  endfacet
  facet normal 0.6087614290087557 0.7933533402912083 0
    outer loop
      vertex -1.7525126265847089 -45.75251262658471 0
      vertex -1.8249999999999993 -45.696891108675445 7
      vertex -1.7525126265847089 -45.75251262658471 7
    endloop
  endfacet
  facet normal 0.9914448613738123 0.13052619222003708 0
    outer loop
      vertex -1.6619259607988255 -45.909413334214115 0
      vertex -1.6619259607988255 -45.909413334214115 7
      vertex -1.6500000000000004 -46 7
    endloop
  endfacet
  facet normal 0.9238795325112757 0.3826834323651165 0
    outer loop
      vertex -1.6968911086754463 -45.825 0
      vertex -1.6968911086754463 -45.825 7
      vertex -1.6619259607988255 -45.909413334214115 7
    endloop
  endfacet
  facet normal 0 -1 0
    outer loop
      vertex -16.7 -53.85 0
      vertex -16.2 -53.85 0.38
      vertex -16.7 -53.85 0.38
    endloop
  endfacet
  facet normal -1 0 0
    outer loop
      vertex -16.7 -53.85 0
      vertex -16.7 -53.85 0.38
      vertex -16.7 -52.95 0.38
    endloop
  endfacet
  facet normal -1 0 0
    outer loop
      vertex -16.7 -53.85 0
      vertex -16.7 -52.95 0.38
      vertex -16.7 -52.95 0
    endloop
  endfacet
  facet normal 0 0 -1
    outer loop
      vertex -16.7 -53.85 0
      vertex -16.7 -52.95 0
      vertex -16.2 -52.95 0
    endloop
  endfacet
  facet normal 0 1 0
    outer loop
      vertex -16.7 -52.95 0
      vertex -16.7 -52.95 0.38
      vertex -16.2 -52.95 0
    endloop
  endfacet
  facet normal 0 -1 0
    outer loop
      vertex -16.7 -53.85 0
      vertex -16.2 -53.85 0
      vertex -16.2 -53.85 0.38
    endloop
  endfacet
  facet normal 0 0 -1
    outer loop
      vertex -16.7 -53.85 0
      vertex -16.2 -52.95 0
      vertex -16.2 -53.85 0
    endloop
  endfacet
  facet normal 1 0 0
    outer loop
      vertex -16.2 -53.85 0
      vertex -16.2 -52.95 0
      vertex -16.2 -53.85 0.38
    endloop
  endfacet
  facet normal 1 0 0
    outer loop
      vertex -16.2 -53.85 0.38
      vertex -16.2 -52.95 0
      vertex -16.2 -52.95 0.38
    endloop
  endfacet
  facet normal 0 1 0
    outer loop
      vertex -16.7 -52.95 0.38
      vertex -16.2 -52.95 0.38
      vertex -16.2 -52.95 0
    endloop
  endfacet
  facet normal 0 -1 0
    outer loop
      vertex -11.65 -53.85 0
      vertex -11.15 -53.85 0.38
      vertex -11.65 -53.85 0.38
    endloop
  endfacet
  facet normal -1 0 0
    outer loop
      vertex -11.65 -53.85 0
      vertex -11.65 -53.85 0.38
      vertex -11.65 -53.465 0.38
    endloop
  endfacet
  facet normal 0 -1 0
    outer loop
      vertex -11.65 -53.85 0
      vertex -11.15 -53.85 0
      vertex -11.15 -53.85 0.38
    endloop
  endfacet
  facet normal 0 0 -1
    outer loop
      vertex -11.65 -53.85 0
      vertex -11.15 -52.95 0
      vertex -11.15 -53.85 0
    endloop
  endfacet
  facet normal 1 0 0
    outer loop
      vertex -11.15 -53.85 0
      vertex -11.15 -52.95 0
      vertex -11.15 -53.85 0.38
    endloop
  endfacet
  facet normal -1 0 0
    outer loop
      vertex -11.65 -53.85 0
      vertex -11.65 -53.465 0.38
      vertex -11.65 -52.95 0.38
    endloop
  endfacet
  facet normal -1 0 0
    outer loop
      vertex -11.65 -53.85 0
      vertex -11.65 -52.95 0.38
      vertex -11.65 -52.95 0
    endloop
  endfacet
  facet normal 0 0 -1
    outer loop
      vertex -11.65 -53.85 0
      vertex -11.65 -52.95 0
      vertex -11.15 -52.95 0
    endloop
  endfacet
  facet normal 1 0 0
    outer loop
      vertex -11.15 -53.85 0.38
      vertex -11.15 -52.95 0
      vertex -11.15 -52.95 0.38
    endloop
  endfacet
  facet normal 0 1 0
    outer loop
      vertex -11.65 -52.95 0
      vertex -11.65 -52.95 0.38
      vertex -11.15 -52.95 0
    endloop
  endfacet
  facet normal 0 1 0
    outer loop
      vertex -11.15 -52.95 0
      vertex -11.65 -52.95 0.38
      vertex -11.15 -52.95 0.38
    endloop
  endfacet
  facet normal 0 -1 0
    outer loop
      vertex -6.15 -53.85 0
      vertex -5.65 -53.85 0.38
      vertex -6.15 -53.85 0.38
    endloop
  endfacet
  facet normal -1 0 0
    outer loop
      vertex -6.15 -53.85 0
      vertex -6.15 -53.85 0.38
      vertex -6.15 -52.95 0.38
    endloop
  endfacet
  facet normal 0 -1 0
    outer loop
      vertex -6.15 -53.85 0
      vertex -5.65 -53.85 0
      vertex -5.65 -53.85 0.38
    endloop
  endfacet
  facet normal 0 0 -1
    outer loop
      vertex -6.15 -53.85 0
      vertex -5.65 -52.95 0
      vertex -5.65 -53.85 0
    endloop
  endfacet
  facet normal 1 0 0
    outer loop
      vertex -5.65 -53.85 0
      vertex -5.65 -52.95 0
      vertex -5.65 -53.85 0.38
    endloop
  endfacet
  facet normal -1 0 0
    outer loop
      vertex -6.15 -53.85 0
      vertex -6.15 -52.95 0.38
      vertex -6.15 -52.95 0
    endloop
  endfacet
  facet normal 0 0 -1
    outer loop
      vertex -6.15 -53.85 0
      vertex -6.15 -52.95 0
      vertex -5.65 -52.95 0
    endloop
  endfacet
  facet normal 1 0 0
    outer loop
      vertex -5.65 -53.85 0.38
      vertex -5.65 -52.95 0
      vertex -5.65 -52.95 0.38
    endloop
  endfacet
  facet normal 0 1 0
    outer loop
      vertex -6.15 -52.95 0
      vertex -6.15 -52.95 0.38
      vertex -5.65 -52.95 0
    endloop
  endfacet
  facet normal 0 1 0
    outer loop
      vertex -5.65 -52.95 0
      vertex -6.15 -52.95 0.38
      vertex -5.65 -52.95 0.38
    endloop
  endfacet
  facet normal -1 0 0
    outer loop
      vertex -17 -54 0.38
      vertex -17 -54 0.5
      vertex -17 -52.8 0.5
    endloop
  endfacet
  facet normal 0 0 -1
    outer loop
      vertex -17 -54 0.38
      vertex -16.7 -53.85 0.38
      vertex -16.2 -53.85 0.38
    endloop
  endfacet
  facet normal 0 0 -1
    outer loop
      vertex -17 -54 0.38
      vertex -16.7 -52.95 0.38
      vertex -16.7 -53.85 0.38
    endloop
  endfacet
  facet normal 0 0 -1
    outer loop
      vertex -17 -54 0.38
      vertex -17 -52.8 0.38
      vertex -16.7 -52.95 0.38
    endloop
  endfacet
  facet normal -1 0 0
    outer loop
      vertex -17 -54 0.38
      vertex -17 -52.8 0.5
      vertex -17 -52.8 0.38
    endloop
  endfacet
  facet normal 0 0 -1
    outer loop
      vertex -17 -52.8 0.38
      vertex -16.2 -52.95 0.38
      vertex -16.7 -52.95 0.38
    endloop
  endfacet
  facet normal 0 0 -1
    outer loop
      vertex -17 -54 0.38
      vertex -16.2 -53.85 0.38
      vertex -11.65 -53.465 0.38
    endloop
  endfacet
  facet normal 0 0 -1
    outer loop
      vertex -17 -52.8 0.38
      vertex -11.65 -53.465 0.38
      vertex -16.2 -52.95 0.38
    endloop
  endfacet
  facet normal 0 0 -1
    outer loop
      vertex -16.2 -53.85 0.38
      vertex -16.2 -52.95 0.38
      vertex -11.65 -53.465 0.38
    endloop
  endfacet
  facet normal 0 0 -1
    outer loop
      vertex -17 -54 0.38
      vertex -11.65 -53.465 0.38
      vertex -11.65 -53.85 0.38
    endloop
  endfacet
  facet normal 0 0 -1
    outer loop
      vertex -17 -52.8 0.38
      vertex -11.65 -52.95 0.38
      vertex -11.65 -53.465 0.38
    endloop
  endfacet
  facet normal 0 -1 0
    outer loop
      vertex -17 -54 0.38
      vertex -5 -54 0.5
      vertex -17 -54 0.5
    endloop
  endfacet
  facet normal 0 0 1
    outer loop
      vertex -17 -54 0.5
      vertex -5 -54 0.5
      vertex -17 -52.8 0.5
    endloop
  endfacet
  facet normal 0 0 -1
    outer loop
      vertex -17 -52.8 0.38
      vertex -11.15 -52.95 0.38
      vertex -11.65 -52.95 0.38
    endloop
  endfacet
  facet normal 0 1 0
    outer loop
      vertex -17 -52.8 0.38
      vertex -17 -52.8 0.5
      vertex -5 -52.8 0.38
    endloop
  endfacet
  facet normal 0 0 -1
    outer loop
      vertex -17 -54 0.38
      vertex -11.65 -53.85 0.38
      vertex -5 -54 0.38
    endloop
  endfacet
  facet normal 0 0 -1
    outer loop
      vertex -17 -52.8 0.38
      vertex -5 -52.8 0.38
      vertex -11.15 -52.95 0.38
    endloop
  endfacet
  facet normal 0 0 -1
    outer loop
      vertex -11.15 -53.85 0.38
      vertex -11.15 -52.95 0.38
      vertex -6.15 -53.85 0.38
    endloop
  endfacet
  facet normal 0 0 -1
    outer loop
      vertex -11.65 -53.85 0.38
      vertex -11.15 -53.85 0.38
      vertex -5 -54 0.38
    endloop
  endfacet
  facet normal 0 -1 0
    outer loop
      vertex -17 -54 0.38
      vertex -5 -54 0.38
      vertex -5 -54 0.5
    endloop
  endfacet
  facet normal 0 0 1
    outer loop
      vertex -17 -52.8 0.5
      vertex -5 -54 0.5
      vertex -5 -52.8 0.5
    endloop
  endfacet
  facet normal 0 1 0
    outer loop
      vertex -17 -52.8 0.5
      vertex -5 -52.8 0.5
      vertex -5 -52.8 0.38
    endloop
  endfacet
  facet normal 0 0 -1
    outer loop
      vertex -11.15 -52.95 0.38
      vertex -6.15 -52.95 0.38
      vertex -6.15 -53.85 0.38
    endloop
  endfacet
  facet normal 0 0 -1
    outer loop
      vertex -11.15 -53.85 0.38
      vertex -6.15 -53.85 0.38
      vertex -5 -54 0.38
    endloop
  endfacet
  facet normal 0 0 -1
    outer loop
      vertex -11.15 -52.95 0.38
      vertex -5 -52.8 0.38
      vertex -6.15 -52.95 0.38
    endloop
  endfacet
  facet normal 0 0 -1
    outer loop
      vertex -6.15 -53.85 0.38
      vertex -5.65 -53.85 0.38
      vertex -5 -54 0.38
    endloop
  endfacet
  facet normal 0 0 -1
    outer loop
      vertex -6.15 -52.95 0.38
      vertex -5 -52.8 0.38
      vertex -5.65 -52.95 0.38
    endloop
  endfacet
  facet normal 0 0 -1
    outer loop
      vertex -5.65 -53.85 0.38
      vertex -5.65 -52.95 0.38
      vertex -5 -54 0.38
    endloop
  endfacet
  facet normal 1 0 0
    outer loop
      vertex -5 -54 0.38
      vertex -5 -52.8 0.38
      vertex -5 -54 0.5
    endloop
  endfacet
  facet normal 0 0 -1
    outer loop
      vertex -5.65 -52.95 0.38
      vertex -5 -52.8 0.38
      vertex -5 -54 0.38
    endloop
  endfacet
  facet normal 1 0 0
    outer loop
      vertex -5 -54 0.5
      vertex -5 -52.8 0.38
      vertex -5 -52.8 0.5
    endloop
  endfacet
  facet normal 0 0 -1
    outer loop
      vertex -22 -60 7
      vertex -20.24748737341529 -58.24748737341529 7
      vertex -20.175 -58.303108891324555 7
    endloop
  endfacet
  facet normal 0 0 -1
    outer loop
      vertex -22 -60 7
      vertex -20.303108891324555 -58.175 7
      vertex -20.24748737341529 -58.24748737341529 7
    endloop
  endfacet
  facet normal 0 0 -1
    outer loop
      vertex -22 -60 7
      vertex -20.338074039201175 -58.090586665785885 7
      vertex -20.303108891324555 -58.175 7
    endloop
  endfacet
  facet normal 0 0 -1
    outer loop
      vertex -22 -60 7
      vertex -20.175 -58.303108891324555 7
      vertex -20.09058666578588 -58.338074039201175 7
    endloop
  endfacet
  facet normal 0 0 -1
    outer loop
      vertex -22 -60 7
      vertex -20.09058666578588 -58.338074039201175 7
      vertex -20 -58.35 7
    endloop
  endfacet
  facet normal 0 0 -1
    outer loop
      vertex -22 -60 7
      vertex -20 -58.35 7
      vertex -19.90941333421412 -58.338074039201175 7
    endloop
  endfacet
  facet normal 0 0 -1
    outer loop
      vertex -22 -60 7
      vertex -20.35 -58 7
      vertex -20.338074039201175 -58.090586665785885 7
    endloop
  endfacet
  facet normal 0 0 -1
    outer loop
      vertex -22 -60 7
      vertex -19.90941333421412 -58.338074039201175 7
      vertex -19.825 -58.303108891324555 7
    endloop
  endfacet
  facet normal 0 0 -1
    outer loop
      vertex -22 -60 7
      vertex -19.825 -58.303108891324555 7
      vertex -19.75251262658471 -58.24748737341529 7
    endloop
  endfacet
  facet normal -1 0 0
    outer loop
      vertex -22 -60 7
      vertex -22 -60 8.6
      vertex -22 -44 8.6
    endloop
  endfacet
  facet normal 0 0 -1
    outer loop
      vertex -22 -60 7
      vertex -22 -44 7
      vertex -20.35 -58 7
    endloop
  endfacet
  facet normal 0 0 -1
    outer loop
      vertex -20.35 -58 7
      vertex -20.35 -46 7
      vertex -20.338074039201175 -57.909413334214115 7
    endloop
  endfacet
  facet normal 0 0 -1
    outer loop
      vertex -20.338074039201175 -57.909413334214115 7
      vertex -20.338074039201175 -46.090586665785885 7
      vertex -20.303108891324555 -57.825 7
    endloop
  endfacet
  facet normal 0 0 -1
    outer loop
      vertex -20.303108891324555 -57.825 7
      vertex -20.303108891324555 -46.175 7
      vertex -20.24748737341529 -57.75251262658471 7
    endloop
  endfacet
  facet normal 0 0 -1
    outer loop
      vertex -20.24748737341529 -57.75251262658471 7
      vertex -20.24748737341529 -46.24748737341529 7
      vertex -20.175 -57.696891108675445 7
    endloop
  endfacet
  facet normal 0 0 -1
    outer loop
      vertex -20.175 -57.696891108675445 7
      vertex -20.175 -46.303108891324555 7
      vertex -20.09058666578588 -57.661925960798825 7
    endloop
  endfacet
  facet normal 0 0 -1
    outer loop
      vertex -20.09058666578588 -57.661925960798825 7
      vertex -20.09058666578588 -46.338074039201175 7
      vertex -20 -57.65 7
    endloop
  endfacet
  facet normal 0 0 -1
    outer loop
      vertex -20 -57.65 7
      vertex -20 -46.35 7
      vertex -19.90941333421412 -57.661925960798825 7
    endloop
  endfacet
  facet normal 0 0 -1
    outer loop
      vertex -19.90941333421412 -57.661925960798825 7
      vertex -19.90941333421412 -46.338074039201175 7
      vertex -19.825 -57.696891108675445 7
    endloop
  endfacet
  facet normal 0 0 -1
    outer loop
      vertex -19.825 -57.696891108675445 7
      vertex -19.825 -46.303108891324555 7
      vertex -19.75251262658471 -57.75251262658471 7
    endloop
  endfacet
  facet normal 0 -1 0
    outer loop
      vertex -22 -60 7
      vertex 0 -60 8.6
      vertex -22 -60 8.6
    endloop
  endfacet
  facet normal 0 0 -1
    outer loop
      vertex -22 -60 7
      vertex -19.75251262658471 -58.24748737341529 7
      vertex 0 -44 7
    endloop
  endfacet
  facet normal 0 0 1
    outer loop
      vertex -22 -60 8.6
      vertex 0 -60 8.6
      vertex -22 -44 8.6
    endloop
  endfacet
  facet normal 0 0 -1
    outer loop
      vertex 0 -44 7
      vertex -19.75251262658471 -58.24748737341529 7
      vertex -19.696891108675445 -58.175 7
    endloop
  endfacet
  facet normal 0 0 -1
    outer loop
      vertex 0 -44 7
      vertex -19.696891108675445 -58.175 7
      vertex -19.661925960798825 -58.090586665785885 7
    endloop
  endfacet
  facet normal 0 0 -1
    outer loop
      vertex 0 -44 7
      vertex -19.661925960798825 -58.090586665785885 7
      vertex -19.65 -58 7
    endloop
  endfacet
  facet normal 0 0 -1
    outer loop
      vertex 0 -44 7
      vertex -19.65 -58 7
      vertex -19.661925960798825 -57.909413334214115 7
    endloop
  endfacet
  facet normal 0 0 -1
    outer loop
      vertex 0 -44 7
      vertex -19.696891108675445 -57.825 7
      vertex -19.75251262658471 -57.75251262658471 7
    endloop
  endfacet
  facet normal 0 0 -1
    outer loop
      vertex 0 -44 7
      vertex -19.661925960798825 -57.909413334214115 7
      vertex -19.696891108675445 -57.825 7
    endloop
  endfacet
  facet normal 0 0 -1
    outer loop
      vertex -20.303108891324555 -57.825 7
      vertex -20.338074039201175 -46.090586665785885 7
      vertex -20.303108891324555 -46.175 7
    endloop
  endfacet
  facet normal 0 0 -1
    outer loop
      vertex -20.175 -57.696891108675445 7
      vertex -20.24748737341529 -46.24748737341529 7
      vertex -20.175 -46.303108891324555 7
    endloop
  endfacet
  facet normal 0 0 -1
    outer loop
      vertex -20.24748737341529 -57.75251262658471 7
      vertex -20.303108891324555 -46.175 7
      vertex -20.24748737341529 -46.24748737341529 7
    endloop
  endfacet
  facet normal 0 0 -1
    outer loop
      vertex -20.09058666578588 -57.661925960798825 7
      vertex -20.175 -46.303108891324555 7
      vertex -20.09058666578588 -46.338074039201175 7
    endloop
  endfacet
  facet normal 0 0 -1
    outer loop
      vertex -20 -57.65 7
      vertex -20.09058666578588 -46.338074039201175 7
      vertex -20 -46.35 7
    endloop
  endfacet
  facet normal 0 0 -1
    outer loop
      vertex -19.90941333421412 -57.661925960798825 7
      vertex -20 -46.35 7
      vertex -19.90941333421412 -46.338074039201175 7
    endloop
  endfacet
  facet normal 0 0 -1
    outer loop
      vertex -19.825 -57.696891108675445 7
      vertex -19.90941333421412 -46.338074039201175 7
      vertex -19.825 -46.303108891324555 7
    endloop
  endfacet
  facet normal 0 0 -1
    outer loop
      vertex -19.75251262658471 -57.75251262658471 7
      vertex -19.825 -46.303108891324555 7
      vertex -19.75251262658471 -46.24748737341529 7
    endloop
  endfacet
  facet normal 0 0 -1
    outer loop
      vertex -22 -44 7
      vertex -20.35 -46 7
      vertex -20.35 -58 7
    endloop
  endfacet
  facet normal 0 0 -1
    outer loop
      vertex -20.338074039201175 -57.909413334214115 7
      vertex -20.35 -46 7
      vertex -20.338074039201175 -46.090586665785885 7
    endloop
  endfacet
  facet normal -1 0 0
    outer loop
      vertex -22 -60 7
      vertex -22 -44 8.6
      vertex -22 -44 7
    endloop
  endfacet
  facet normal 0 0 -1
    outer loop
      vertex -22 -44 7
      vertex -20.338074039201175 -45.909413334214115 7
      vertex -20.35 -46 7
    endloop
  endfacet
  facet normal 0 0 -1
    outer loop
      vertex -22 -44 7
      vertex -20.303108891324555 -45.825 7
      vertex -20.338074039201175 -45.909413334214115 7
    endloop
  endfacet
  facet normal 0 0 -1
    outer loop
      vertex -22 -44 7
      vertex -20.24748737341529 -45.75251262658471 7
      vertex -20.303108891324555 -45.825 7
    endloop
  endfacet
  facet normal 0 0 -1
    outer loop
      vertex -22 -44 7
      vertex -20.175 -45.696891108675445 7
      vertex -20.24748737341529 -45.75251262658471 7
    endloop
  endfacet
  facet normal 0 0 -1
    outer loop
      vertex -22 -44 7
      vertex -20.09058666578588 -45.661925960798825 7
      vertex -20.175 -45.696891108675445 7
    endloop
  endfacet
  facet normal 0 0 -1
    outer loop
      vertex -22 -44 7
      vertex -20 -45.65 7
      vertex -20.09058666578588 -45.661925960798825 7
    endloop
  endfacet
  facet normal 0 0 -1
    outer loop
      vertex 0 -44 7
      vertex -19.75251262658471 -57.75251262658471 7
      vertex -19.75251262658471 -46.24748737341529 7
    endloop
  endfacet
  facet normal 0 0 -1
    outer loop
      vertex -22 -44 7
      vertex 0 -44 7
      vertex -20 -45.65 7
    endloop
  endfacet
  facet normal 0 1 0
    outer loop
      vertex -22 -44 7
      vertex -22 -44 8.6
      vertex 0 -44 7
    endloop
  endfacet
  facet normal 0 0 -1
    outer loop
      vertex 0 -44 7
      vertex -19.75251262658471 -46.24748737341529 7
      vertex -19.696891108675445 -46.175 7
    endloop
  endfacet
  facet normal 0 0 -1
    outer loop
      vertex 0 -44 7
      vertex -19.696891108675445 -46.175 7
      vertex -19.661925960798825 -46.090586665785885 7
    endloop
  endfacet
  facet normal 0 0 -1
    outer loop
      vertex 0 -44 7
      vertex -19.661925960798825 -46.090586665785885 7
      vertex -19.65 -46 7
    endloop
  endfacet
  facet normal 0 0 -1
    outer loop
      vertex 0 -44 7
      vertex -19.65 -46 7
      vertex -19.661925960798825 -45.909413334214115 7
    endloop
  endfacet
  facet normal 0 0 -1
    outer loop
      vertex 0 -44 7
      vertex -19.90941333421412 -45.661925960798825 7
      vertex -20 -45.65 7
    endloop
  endfacet
  facet normal 0 0 -1
    outer loop
      vertex 0 -44 7
      vertex -19.825 -45.696891108675445 7
      vertex -19.90941333421412 -45.661925960798825 7
    endloop
  endfacet
  facet normal 0 0 -1
    outer loop
      vertex 0 -44 7
      vertex -19.696891108675445 -45.825 7
      vertex -19.75251262658471 -45.75251262658471 7
    endloop
  endfacet
  facet normal 0 0 -1
    outer loop
      vertex 0 -44 7
      vertex -19.75251262658471 -45.75251262658471 7
      vertex -19.825 -45.696891108675445 7
    endloop
  endfacet
  facet normal 0 0 -1
    outer loop
      vertex 0 -44 7
      vertex -19.661925960798825 -45.909413334214115 7
      vertex -19.696891108675445 -45.825 7
    endloop
  endfacet
  facet normal 0 0 -1
    outer loop
      vertex -22 -60 7
      vertex -2.3380740392011745 -58.090586665785885 7
      vertex -2.3031088913245537 -58.175 7
    endloop
  endfacet
  facet normal 0 0 -1
    outer loop
      vertex -22 -60 7
      vertex -2.3031088913245537 -58.175 7
      vertex -2.247487373415291 -58.24748737341529 7
    endloop
  endfacet
  facet normal 0 0 -1
    outer loop
      vertex -22 -60 7
      vertex -2.3499999999999996 -58 7
      vertex -2.3380740392011745 -58.090586665785885 7
    endloop
  endfacet
  facet normal 0 0 -1
    outer loop
      vertex -22 -60 7
      vertex -2.247487373415291 -58.24748737341529 7
      vertex 0 -60 7
    endloop
  endfacet
  facet normal 0 -1 0
    outer loop
      vertex -22 -60 7
      vertex 0 -60 7
      vertex 0 -60 8.6
    endloop
  endfacet
  facet normal 0 0 -1
    outer loop
      vertex -22 -60 7
      vertex -2.3499999999999996 -46 7
      vertex -2.3499999999999996 -58 7
    endloop
  endfacet
  facet normal 0 0 -1
    outer loop
      vertex 0 -60 7
      vertex -2.1750000000000007 -58.303108891324555 7
      vertex -2.0905866657858816 -58.338074039201175 7
    endloop
  endfacet
  facet normal 0 0 -1
    outer loop
      vertex 0 -60 7
      vertex -2.247487373415291 -58.24748737341529 7
      vertex -2.1750000000000007 -58.303108891324555 7
    endloop
  endfacet
  facet normal 0 0 -1
    outer loop
      vertex 0 -60 7
      vertex -2.0905866657858816 -58.338074039201175 7
      vertex -2 -58.35 7
    endloop
  endfacet
  facet normal 0 0 -1
    outer loop
      vertex 0 -60 7
      vertex -2 -58.35 7
      vertex -1.9094133342141184 -58.338074039201175 7
    endloop
  endfacet
  facet normal 0 0 -1
    outer loop
      vertex 0 -60 7
      vertex -1.9094133342141184 -58.338074039201175 7
      vertex -1.8249999999999993 -58.303108891324555 7
    endloop
  endfacet
  facet normal 0 0 -1
    outer loop
      vertex 0 -60 7
      vertex -1.8249999999999993 -58.303108891324555 7
      vertex -1.7525126265847089 -58.24748737341529 7
    endloop
  endfacet
  facet normal 0 0 -1
    outer loop
      vertex 0 -60 7
      vertex -1.7525126265847089 -58.24748737341529 7
      vertex -1.6968911086754463 -58.175 7
    endloop
  endfacet
  facet normal 0 0 -1
    outer loop
      vertex 0 -60 7
      vertex -1.6968911086754463 -58.175 7
      vertex -1.6619259607988255 -58.090586665785885 7
    endloop
  endfacet
  facet normal 0 0 -1
    outer loop
      vertex 0 -60 7
      vertex -1.6619259607988255 -58.090586665785885 7
      vertex -1.6500000000000004 -58 7
    endloop
  endfacet
  facet normal 1 0 0
    outer loop
      vertex 0 -60 7
      vertex 0 -44 7
      vertex 0 -60 8.6
    endloop
  endfacet
  facet normal 0 0 -1
    outer loop
      vertex -2.3499999999999996 -58 7
      vertex -2.3499999999999996 -46 7
      vertex -2.3380740392011745 -57.909413334214115 7
    endloop
  endfacet
  facet normal 0 0 -1
    outer loop
      vertex -2.3380740392011745 -57.909413334214115 7
      vertex -2.3380740392011745 -46.090586665785885 7
      vertex -2.3031088913245537 -57.825 7
    endloop
  endfacet
  facet normal 0 0 -1
    outer loop
      vertex -2.3031088913245537 -57.825 7
      vertex -2.3031088913245537 -46.175 7
      vertex -2.247487373415291 -57.75251262658471 7
    endloop
  endfacet
  facet normal 0 0 -1
    outer loop
      vertex -2.247487373415291 -57.75251262658471 7
      vertex -2.247487373415291 -46.24748737341529 7
      vertex -2.1750000000000007 -57.696891108675445 7
    endloop
  endfacet
  facet normal 0 0 -1
    outer loop
      vertex -2.1750000000000007 -57.696891108675445 7
      vertex -2.1750000000000007 -46.303108891324555 7
      vertex -2.0905866657858816 -57.661925960798825 7
    endloop
  endfacet
  facet normal 0 0 -1
    outer loop
      vertex -2.0905866657858816 -57.661925960798825 7
      vertex -2.0905866657858816 -46.338074039201175 7
      vertex -2 -57.65 7
    endloop
  endfacet
  facet normal 0 0 -1
    outer loop
      vertex -2 -57.65 7
      vertex -2 -46.35 7
      vertex -1.9094133342141184 -57.661925960798825 7
    endloop
  endfacet
  facet normal 0 0 -1
    outer loop
      vertex -1.9094133342141184 -57.661925960798825 7
      vertex -1.9094133342141184 -46.338074039201175 7
      vertex -1.8249999999999993 -57.696891108675445 7
    endloop
  endfacet
  facet normal 0 0 -1
    outer loop
      vertex -1.8249999999999993 -57.696891108675445 7
      vertex -1.8249999999999993 -46.303108891324555 7
      vertex -1.7525126265847089 -57.75251262658471 7
    endloop
  endfacet
  facet normal 0 0 -1
    outer loop
      vertex 0 -44 7
      vertex -1.6500000000000004 -58 7
      vertex -1.6619259607988255 -57.909413334214115 7
    endloop
  endfacet
  facet normal 0 0 -1
    outer loop
      vertex 0 -44 7
      vertex -1.6619259607988255 -57.909413334214115 7
      vertex -1.6968911086754463 -57.825 7
    endloop
  endfacet
  facet normal 0 0 -1
    outer loop
      vertex 0 -44 7
      vertex -1.6968911086754463 -57.825 7
      vertex -1.7525126265847089 -57.75251262658471 7
    endloop
  endfacet
  facet normal 0 0 -1
    outer loop
      vertex 0 -60 7
      vertex -1.6500000000000004 -58 7
      vertex 0 -44 7
    endloop
  endfacet
  facet normal 0 0 -1
    outer loop
      vertex -22 -60 7
      vertex -2.3380740392011745 -45.909413334214115 7
      vertex -2.3499999999999996 -46 7
    endloop
  endfacet
  facet normal 0 0 -1
    outer loop
      vertex -22 -60 7
      vertex -2.3031088913245537 -45.825 7
      vertex -2.3380740392011745 -45.909413334214115 7
    endloop
  endfacet
  facet normal 0 0 -1
    outer loop
      vertex -22 -60 7
      vertex -2.247487373415291 -45.75251262658471 7
      vertex -2.3031088913245537 -45.825 7
    endloop
  endfacet
  facet normal 0 0 -1
    outer loop
      vertex -22 -60 7
      vertex 0 -44 7
      vertex -2.247487373415291 -45.75251262658471 7
    endloop
  endfacet
  facet normal 0 0 1
    outer loop
      vertex -22 -44 8.6
      vertex 0 -60 8.6
      vertex 0 -44 8.6
    endloop
  endfacet
  facet normal 0 1 0
    outer loop
      vertex -22 -44 8.6
      vertex 0 -44 8.6
      vertex 0 -44 7
    endloop
  endfacet
  facet normal 0 0 -1
    outer loop
      vertex -2.3031088913245537 -57.825 7
      vertex -2.3380740392011745 -46.090586665785885 7
      vertex -2.3031088913245537 -46.175 7
    endloop
  endfacet
  facet normal 0 0 -1
    outer loop
      vertex -2.247487373415291 -57.75251262658471 7
      vertex -2.3031088913245537 -46.175 7
      vertex -2.247487373415291 -46.24748737341529 7
    endloop
  endfacet
  facet normal 0 0 -1
    outer loop
      vertex -2.1750000000000007 -57.696891108675445 7
      vertex -2.247487373415291 -46.24748737341529 7
      vertex -2.1750000000000007 -46.303108891324555 7
    endloop
  endfacet
  facet normal 0 0 -1
    outer loop
      vertex -2.0905866657858816 -57.661925960798825 7
      vertex -2.1750000000000007 -46.303108891324555 7
      vertex -2.0905866657858816 -46.338074039201175 7
    endloop
  endfacet
  facet normal 0 0 -1
    outer loop
      vertex -2 -57.65 7
      vertex -2.0905866657858816 -46.338074039201175 7
      vertex -2 -46.35 7
    endloop
  endfacet
  facet normal 0 0 -1
    outer loop
      vertex -1.9094133342141184 -57.661925960798825 7
      vertex -2 -46.35 7
      vertex -1.9094133342141184 -46.338074039201175 7
    endloop
  endfacet
  facet normal 0 0 -1
    outer loop
      vertex -1.8249999999999993 -57.696891108675445 7
      vertex -1.9094133342141184 -46.338074039201175 7
      vertex -1.8249999999999993 -46.303108891324555 7
    endloop
  endfacet
  facet normal 0 0 -1
    outer loop
      vertex -1.7525126265847089 -57.75251262658471 7
      vertex -1.8249999999999993 -46.303108891324555 7
      vertex -1.7525126265847089 -46.24748737341529 7
    endloop
  endfacet
  facet normal 0 0 -1
    outer loop
      vertex -2.3380740392011745 -57.909413334214115 7
      vertex -2.3499999999999996 -46 7
      vertex -2.3380740392011745 -46.090586665785885 7
    endloop
  endfacet
  facet normal 0 0 -1
    outer loop
      vertex 0 -44 7
      vertex -1.7525126265847089 -57.75251262658471 7
      vertex -1.7525126265847089 -46.24748737341529 7
    endloop
  endfacet
  facet normal 1 0 0
    outer loop
      vertex 0 -60 8.6
      vertex 0 -44 7
      vertex 0 -44 8.6
    endloop
  endfacet
  facet normal 0 0 -1
    outer loop
      vertex 0 -44 7
      vertex -2.1750000000000007 -45.696891108675445 7
      vertex -2.247487373415291 -45.75251262658471 7
    endloop
  endfacet
  facet normal 0 0 -1
    outer loop
      vertex 0 -44 7
      vertex -2.0905866657858816 -45.661925960798825 7
      vertex -2.1750000000000007 -45.696891108675445 7
    endloop
  endfacet
  facet normal 0 0 -1
    outer loop
      vertex 0 -44 7
      vertex -1.7525126265847089 -46.24748737341529 7
      vertex -1.6968911086754463 -46.175 7
    endloop
  endfacet
  facet normal 0 0 -1
    outer loop
      vertex 0 -44 7
      vertex -1.6968911086754463 -46.175 7
      vertex -1.6619259607988255 -46.090586665785885 7
    endloop
  endfacet
  facet normal 0 0 -1
    outer loop
      vertex 0 -44 7
      vertex -1.6619259607988255 -46.090586665785885 7
      vertex -1.6500000000000004 -46 7
    endloop
  endfacet
  facet normal 0 0 -1
    outer loop
      vertex 0 -44 7
      vertex -1.6500000000000004 -46 7
      vertex -1.6619259607988255 -45.909413334214115 7
    endloop
  endfacet
  facet normal 0 0 -1
    outer loop
      vertex 0 -44 7
      vertex -2 -45.65 7
      vertex -2.0905866657858816 -45.661925960798825 7
    endloop
  endfacet
  facet normal 0 0 -1
    outer loop
      vertex 0 -44 7
      vertex -1.9094133342141184 -45.661925960798825 7
      vertex -2 -45.65 7
    endloop
  endfacet
  facet normal 0 0 -1
    outer loop
      vertex 0 -44 7
      vertex -1.8249999999999993 -45.696891108675445 7
      vertex -1.9094133342141184 -45.661925960798825 7
    endloop
  endfacet
  facet normal 0 0 -1
    outer loop
      vertex 0 -44 7
      vertex -1.6619259607988255 -45.909413334214115 7
      vertex -1.6968911086754463 -45.825 7
    endloop
  endfacet
  facet normal 0 0 -1
    outer loop
      vertex 0 -44 7
      vertex -1.6968911086754463 -45.825 7
      vertex -1.7525126265847089 -45.75251262658471 7
    endloop
  endfacet
  facet normal 0 0 -1
    outer loop
      vertex 0 -44 7
      vertex -1.7525126265847089 -45.75251262658471 7
      vertex -1.8249999999999993 -45.696891108675445 7
    endloop
  endfacet
endsolid OpenSCAD_Model
