solid OpenSCAD_Model
  facet normal 0 0 -1
    outer loop
      vertex -4 65 0
      vertex 4 65 0
      vertex -4 17 0
    endloop
  endfacet
  facet normal -1 0 0
    outer loop
      vertex -4 65 0
      vertex -4 17 0
      vertex -4 65 0.35
    endloop
  endfacet
  facet normal 0 1 0
    outer loop
      vertex -4 65 0
      vertex -4 65 0.35
      vertex 4 65 0
    endloop
  endfacet
  facet normal -1 0 0
    outer loop
      vertex -4 65 0.35
      vertex -4 17 0
      vertex -4 17 0.35
    endloop
  endfacet
  facet normal 0 0 1
    outer loop
      vertex -4 65 0.35
      vertex -4 17 0.35
      vertex 4 17 0.35
    endloop
  endfacet
  facet normal 0 0 -1
    outer loop
      vertex 4 65 0
      vertex 4 17 0
      vertex -4 17 0
    endloop
  endfacet
  facet normal 1 0 0
    outer loop
      vertex 4 65 0
      vertex 4 17 0.35
      vertex 4 17 0
    endloop
  endfacet
  facet normal 1 0 0
    outer loop
      vertex 4 65 0
      vertex 4 65 0.35
      vertex 4 17 0.35
    endloop
  endfacet
  facet normal 0 1 0
    outer loop
      vertex -4 65 0.35
      vertex 4 65 0.35
      vertex 4 65 0
    endloop
  endfacet
  facet normal 0 0 1
    outer loop
      vertex -4 65 0.35
      vertex 4 17 0.35
      vertex 4 65 0.35
    endloop
  endfacet
  facet normal 0 0 -1
    outer loop
      vertex -65 -4 0
      vertex -17 4 0
      vertex -17 -4 0
    endloop
  endfacet
  facet normal 0 -1 0
    outer loop
      vertex -65 -4 0
      vertex -17 -4 0
      vertex -17 -4 0.35
    endloop
  endfacet
  facet normal -1 0 0
    outer loop
      vertex -65 -4 0
      vertex -65 -4 0.35
      vertex -65 4 0.35
    endloop
  endfacet
  facet normal 0 -1 0
    outer loop
      vertex -65 -4 0
      vertex -17 -4 0.35
      vertex -65 -4 0.35
    endloop
  endfacet
  facet normal 0 0 1
    outer loop
      vertex -65 -4 0.35
      vertex -17 -4 0.35
      vertex -65 4 0.35
    endloop
  endfacet
  facet normal 0 0 -1
    outer loop
      vertex -65 -4 0
      vertex -65 4 0
      vertex -17 4 0
    endloop
  endfacet
  facet normal -1 0 0
    outer loop
      vertex -65 -4 0
      vertex -65 4 0.35
      vertex -65 4 0
    endloop
  endfacet
  facet normal 0 1 0
    outer loop
      vertex -65 4 0
      vertex -65 4 0.35
      vertex -17 4 0
    endloop
  endfacet
  facet normal 0 1 0
    outer loop
      vertex -65 4 0.35
      vertex -17 4 0.35
      vertex -17 4 0
    endloop
  endfacet
  facet normal 0 0 1
    outer loop
      vertex -65 4 0.35
      vertex -17 -4 0.35
      vertex -17 4 0.35
    endloop
  endfacet
  facet normal 0 0 -1
    outer loop
      vertex -4 -65 0
      vertex -4 -17 0
      vertex 4 -17 0
    endloop
  endfacet
  facet normal -1 0 0
    outer loop
      vertex -4 -65 0
      vertex -4 -17 0.35
      vertex -4 -17 0
    endloop
  endfacet
  facet normal 0 -1 0
    outer loop
      vertex -4 -65 0
      vertex 4 -65 0.35
      vertex -4 -65 0.35
    endloop
  endfacet
  facet normal -1 0 0
    outer loop
      vertex -4 -65 0
      vertex -4 -65 0.35
      vertex -4 -17 0.35
    endloop
  endfacet
  facet normal 0 0 1
    outer loop
      vertex -4 -65 0.35
      vertex 4 -65 0.35
      vertex -4 -17 0.35
    endloop
  endfacet
  facet normal 0 0 -1
    outer loop
      vertex -4 -65 0
      vertex 4 -17 0
      vertex 4 -65 0
    endloop
  endfacet
  facet normal 0 -1 0
    outer loop
      vertex -4 -65 0
      vertex 4 -65 0
      vertex 4 -65 0.35
    endloop
  endfacet
  facet normal 1 0 0
    outer loop
      vertex 4 -65 0
      vertex 4 -17 0
      vertex 4 -65 0.35
    endloop
  endfacet
  facet normal 1 0 0
    outer loop
      vertex 4 -65 0.35
      vertex 4 -17 0
      vertex 4 -17 0.35
    endloop
  endfacet
  facet normal 0 0 1
    outer loop
      vertex 4 -65 0.35
      vertex 4 -17 0.35
      vertex -4 -17 0.35
    endloop
  endfacet
  facet normal 0 0 -1
    outer loop
      vertex 65 -4 0
      vertex 17 -4 0
      vertex 65 4 0
    endloop
  endfacet
  facet normal 0 -1 0
    outer loop
      vertex 65 -4 0
      vertex 65 -4 0.35
      vertex 17 -4 0
    endloop
  endfacet
  facet normal 1 0 0
    outer loop
      vertex 65 -4 0
      vertex 65 4 0
      vertex 65 -4 0.35
    endloop
  endfacet
  facet normal 0 -1 0
    outer loop
      vertex 65 -4 0.35
      vertex 17 -4 0.35
      vertex 17 -4 0
    endloop
  endfacet
  facet normal 0 0 1
    outer loop
      vertex 65 -4 0.35
      vertex 17 4 0.35
      vertex 17 -4 0.35
    endloop
  endfacet
  facet normal 0 0 -1
    outer loop
      vertex 65 4 0
      vertex 17 -4 0
      vertex 17 4 0
    endloop
  endfacet
  facet normal 0 1 0
    outer loop
      vertex 65 4 0
      vertex 17 4 0
      vertex 17 4 0.35
    endloop
  endfacet
  facet normal 0 1 0
    outer loop
      vertex 65 4 0
      vertex 17 4 0.35
      vertex 65 4 0.35
    endloop
  endfacet
  facet normal 1 0 0
    outer loop
      vertex 65 -4 0.35
      vertex 65 4 0
      vertex 65 4 0.35
    endloop
  endfacet
  facet normal 0 0 1
    outer loop
      vertex 65 -4 0.35
      vertex 65 4 0.35
      vertex 17 4 0.35
    endloop
  endfacet
  facet normal 0 0 -1
    outer loop
      vertex -17 -17 0
      vertex -17 -4 0
      vertex 17 17 0
    endloop
  endfacet
  facet normal 0 0 -1
    outer loop
      vertex -17 -17 0
      vertex 17 17 0
      vertex -4 -17 0
    endloop
  endfacet
  facet normal -1 0 0
    outer loop
      vertex -17 -17 0
      vertex -17 -4 0.35
      vertex -17 -4 0
    endloop
  endfacet
  facet normal 0 -1 0
    outer loop
      vertex -17 -17 0
      vertex -4 -17 0
      vertex -17 -17 0.35
    endloop
  endfacet
  facet normal -1 0 0
    outer loop
      vertex -17 -17 0
      vertex -17 -17 0.35
      vertex -17 -4 0.35
    endloop
  endfacet
  facet normal 0 -1 0
    outer loop
      vertex -17 -17 0.35
      vertex -4 -17 0
      vertex -4 -17 0.35
    endloop
  endfacet
  facet normal 0 0 1
    outer loop
      vertex -17 -17 0.35
      vertex -4 -17 0.35
      vertex -17 -4 0.35
    endloop
  endfacet
  facet normal 0 0 1
    outer loop
      vertex -17 4 0.35
      vertex -17 -4 0.35
      vertex -4 -17 0.35
    endloop
  endfacet
  facet normal 0 0 1
    outer loop
      vertex -17 4 0.35
      vertex -4 -17 0.35
      vertex 4 -17 0.35
    endloop
  endfacet
  facet normal 0 0 -1
    outer loop
      vertex -4 17 0
      vertex -17 -4 0
      vertex -17 4 0
    endloop
  endfacet
  facet normal 0 0 -1
    outer loop
      vertex -17 17 0
      vertex -4 17 0
      vertex -17 4 0
    endloop
  endfacet
  facet normal 0 0 -1
    outer loop
      vertex -4 17 0
      vertex 4 17 0
      vertex -17 -4 0
    endloop
  endfacet
  facet normal -1 0 0
    outer loop
      vertex -17 17 0
      vertex -17 4 0
      vertex -17 17 0.35
    endloop
  endfacet
  facet normal 0 1 0
    outer loop
      vertex -17 17 0
      vertex -4 17 0.35
      vertex -4 17 0
    endloop
  endfacet
  facet normal -1 0 0
    outer loop
      vertex -17 17 0.35
      vertex -17 4 0
      vertex -17 4 0.35
    endloop
  endfacet
  facet normal 0 1 0
    outer loop
      vertex -17 17 0
      vertex -17 17 0.35
      vertex -4 17 0.35
    endloop
  endfacet
  facet normal 0 0 1
    outer loop
      vertex -17 17 0.35
      vertex -17 4 0.35
      vertex 4 -17 0.35
    endloop
  endfacet
  facet normal 0 0 1
    outer loop
      vertex -17 17 0.35
      vertex 17 -4 0.35
      vertex -4 17 0.35
    endloop
  endfacet
  facet normal 0 0 -1
    outer loop
      vertex 4 -17 0
      vertex -4 -17 0
      vertex 17 4 0
    endloop
  endfacet
  facet normal 0 0 -1
    outer loop
      vertex 17 -17 0
      vertex 4 -17 0
      vertex 17 -4 0
    endloop
  endfacet
  facet normal 0 0 -1
    outer loop
      vertex 4 -17 0
      vertex 17 4 0
      vertex 17 -4 0
    endloop
  endfacet
  facet normal 0 -1 0
    outer loop
      vertex 17 -17 0
      vertex 4 -17 0.35
      vertex 4 -17 0
    endloop
  endfacet
  facet normal 1 0 0
    outer loop
      vertex 17 -17 0
      vertex 17 -4 0
      vertex 17 -17 0.35
    endloop
  endfacet
  facet normal 0 -1 0
    outer loop
      vertex 17 -17 0
      vertex 17 -17 0.35
      vertex 4 -17 0.35
    endloop
  endfacet
  facet normal 1 0 0
    outer loop
      vertex 17 -17 0.35
      vertex 17 -4 0
      vertex 17 -4 0.35
    endloop
  endfacet
  facet normal 0 0 1
    outer loop
      vertex -17 17 0.35
      vertex 4 -17 0.35
      vertex 17 -17 0.35
    endloop
  endfacet
  facet normal 0 0 1
    outer loop
      vertex -17 17 0.35
      vertex 17 -17 0.35
      vertex 17 -4 0.35
    endloop
  endfacet
  facet normal 0 0 -1
    outer loop
      vertex 17 17 0
      vertex -17 -4 0
      vertex 4 17 0
    endloop
  endfacet
  facet normal 0 0 -1
    outer loop
      vertex 17 17 0
      vertex 17 4 0
      vertex -4 -17 0
    endloop
  endfacet
  facet normal 0 1 0
    outer loop
      vertex 17 17 0
      vertex 4 17 0
      vertex 17 17 0.35
    endloop
  endfacet
  facet normal 1 0 0
    outer loop
      vertex 17 17 0
      vertex 17 4 0.35
      vertex 17 4 0
    endloop
  endfacet
  facet normal 0 1 0
    outer loop
      vertex 17 17 0.35
      vertex 4 17 0
      vertex 4 17 0.35
    endloop
  endfacet
  facet normal 1 0 0
    outer loop
      vertex 17 17 0
      vertex 17 17 0.35
      vertex 17 4 0.35
    endloop
  endfacet
  facet normal 0 0 1
    outer loop
      vertex 17 -4 0.35
      vertex 4 17 0.35
      vertex -4 17 0.35
    endloop
  endfacet
  facet normal 0 0 1
    outer loop
      vertex 17 -4 0.35
      vertex 17 4 0.35
      vertex 4 17 0.35
    endloop
  endfacet
  facet normal 0 0 1
    outer loop
      vertex 17 17 0.35
      vertex 4 17 0.35
      vertex 17 4 0.35
    endloop
  endfacet
endsolid OpenSCAD_Model
