solid OpenSCAD_Model
  facet normal -1 0 0
    outer loop
      vertex 25 -9 8
      vertex 25 -8.693332436601615 10.329371405922686
      vertex 25 -7.794228634059947 12.5
    endloop
  endfacet
  facet normal -1 0 0
    outer loop
      vertex 25 -9 8
      vertex 25 -7.794228634059947 12.5
      vertex 25 -6.3639610306789285 14.36396103067893
    endloop
  endfacet
  facet normal -1 0 0
    outer loop
      vertex 25 -9 8
      vertex 25 -6.3639610306789285 14.36396103067893
      vertex 25 -4.5 15.794228634059948
    endloop
  endfacet
  facet normal -1 0 0
    outer loop
      vertex 25 -9 8
      vertex 25 -4.5 15.794228634059948
      vertex 25 -2.3293714059226867 16.693332436601615
    endloop
  endfacet
  facet normal -1 0 0
    outer loop
      vertex 25 -9 8
      vertex 25 -2.3293714059226867 16.693332436601615
      vertex 25 0 17
    endloop
  endfacet
  facet normal -1 0 0
    outer loop
      vertex 25 -9 8
      vertex 25 0 17
      vertex 25 2.3293714059226858 16.693332436601615
    endloop
  endfacet
  facet normal 0 -0.9914448613738105 0.13052619222005143
    outer loop
      vertex 25 -9 8
      vertex 63 -8.693332436601615 10.329371405922686
      vertex 25 -8.693332436601615 10.329371405922686
    endloop
  endfacet
  facet normal 0 -0.9914448613738105 0.1305261922200514
    outer loop
      vertex 25 -9 8
      vertex 27 -9 8
      vertex 63 -8.693332436601615 10.329371405922686
    endloop
  endfacet
  facet normal 0 -0.9238795325112866 0.38268343236509006
    outer loop
      vertex 25 -8.693332436601615 10.329371405922686
      vertex 63 -7.794228634059947 12.5
      vertex 25 -7.794228634059947 12.5
    endloop
  endfacet
  facet normal 0 -0.9914448613738105 0.1305261922200514
    outer loop
      vertex 63 -8.693332436601615 10.329371405922686
      vertex 27 -9 8
      vertex 29 -9 8
    endloop
  endfacet
  facet normal 0 -0.9914448613738105 0.13052619222005155
    outer loop
      vertex 63 -8.693332436601615 10.329371405922686
      vertex 29 -9 8
      vertex 30.2 -9 8
    endloop
  endfacet
  facet normal 0 -0.9914448613738104 0.13052619222005138
    outer loop
      vertex 63 -8.693332436601615 10.329371405922686
      vertex 30.2 -9 8
      vertex 35 -9 8
    endloop
  endfacet
  facet normal 0 -0.7933533402912357 0.6087614290087199
    outer loop
      vertex 25 -7.794228634059947 12.5
      vertex 63 -6.3639610306789285 14.36396103067893
      vertex 25 -6.3639610306789285 14.36396103067893
    endloop
  endfacet
  facet normal 0 -0.6087614290087201 0.7933533402912356
    outer loop
      vertex 25 -6.3639610306789285 14.36396103067893
      vertex 63 -6.3639610306789285 14.36396103067893
      vertex 25 -4.5 15.794228634059948
    endloop
  endfacet
  facet normal 0 -0.38268343236508984 0.9238795325112867
    outer loop
      vertex 25 -4.5 15.794228634059948
      vertex 63 -4.5 15.794228634059948
      vertex 25 -2.3293714059226867 16.693332436601615
    endloop
  endfacet
  facet normal -1 0 0
    outer loop
      vertex 25 -9 8
      vertex 25 4.5 15.794228634059948
      vertex 25 6.363961030678929 14.36396103067893
    endloop
  endfacet
  facet normal -1 0 0
    outer loop
      vertex 25 -9 8
      vertex 25 8.693332436601615 10.329371405922686
      vertex 25 9 8
    endloop
  endfacet
  facet normal -1 0 0
    outer loop
      vertex 25 -9 8
      vertex 25 7.794228634059948 12.5
      vertex 25 8.693332436601615 10.329371405922686
    endloop
  endfacet
  facet normal -1 0 0
    outer loop
      vertex 25 -9 8
      vertex 25 6.363961030678929 14.36396103067893
      vertex 25 7.794228634059948 12.5
    endloop
  endfacet
  facet normal -1 0 0
    outer loop
      vertex 25 -9 8
      vertex 25 2.3293714059226858 16.693332436601615
      vertex 25 4.5 15.794228634059948
    endloop
  endfacet
  facet normal 0 0.9914448613738105 0.1305261922200514
    outer loop
      vertex 25 9 8
      vertex 25 8.693332436601615 10.329371405922686
      vertex 27 9 8
    endloop
  endfacet
  facet normal 0 -0.13052619222005138 0.9914448613738104
    outer loop
      vertex 25 -2.3293714059226867 16.693332436601615
      vertex 63 -2.3293714059226867 16.693332436601615
      vertex 25 0 17
    endloop
  endfacet
  facet normal 0 0.13052619222005143 0.9914448613738105
    outer loop
      vertex 25 0 17
      vertex 63 0 17
      vertex 25 2.3293714059226858 16.693332436601615
    endloop
  endfacet
  facet normal 0 0.3826834323650897 0.9238795325112867
    outer loop
      vertex 25 2.3293714059226858 16.693332436601615
      vertex 63 2.3293714059226858 16.693332436601615
      vertex 25 4.5 15.794228634059948
    endloop
  endfacet
  facet normal 0 0.9914448613738104 0.1305261922200514
    outer loop
      vertex 25 8.693332436601615 10.329371405922686
      vertex 61 9 8
      vertex 27 9 8
    endloop
  endfacet
  facet normal 0 0.9238795325112867 0.3826834323650897
    outer loop
      vertex 25 8.693332436601615 10.329371405922686
      vertex 25 7.794228634059948 12.5
      vertex 63 8.693332436601615 10.329371405922686
    endloop
  endfacet
  facet normal 0 0.6087614290087199 0.7933533402912357
    outer loop
      vertex 25 4.5 15.794228634059948
      vertex 63 4.5 15.794228634059948
      vertex 25 6.363961030678929 14.36396103067893
    endloop
  endfacet
  facet normal 0 0.7933533402912357 0.6087614290087199
    outer loop
      vertex 25 7.794228634059948 12.5
      vertex 25 6.363961030678929 14.36396103067893
      vertex 63 7.794228634059948 12.5
    endloop
  endfacet
  facet normal 0 -0.9914448613738105 0.1305261922200512
    outer loop
      vertex 63 -8.693332436601615 10.329371405922686
      vertex 35 -9 8
      vertex 36.2 -9 8
    endloop
  endfacet
  facet normal 0 -0.9914448613738105 0.13052619222005146
    outer loop
      vertex 63 -8.693332436601615 10.329371405922686
      vertex 36.2 -9 8
      vertex 41 -9 8
    endloop
  endfacet
  facet normal 0 -0.9914448613738105 0.1305261922200512
    outer loop
      vertex 63 -8.693332436601615 10.329371405922686
      vertex 41 -9 8
      vertex 42.2 -9 8
    endloop
  endfacet
  facet normal 0 -0.9914448613738105 0.13052619222005146
    outer loop
      vertex 63 -8.693332436601615 10.329371405922686
      vertex 42.2 -9 8
      vertex 47 -9 8
    endloop
  endfacet
  facet normal 0 -0.9914448613738105 0.1305261922200512
    outer loop
      vertex 63 -8.693332436601615 10.329371405922686
      vertex 47 -9 8
      vertex 48.2 -9 8
    endloop
  endfacet
  facet normal 0 -0.9238795325112866 0.38268343236509006
    outer loop
      vertex 25 -8.693332436601615 10.329371405922686
      vertex 63 -8.693332436601615 10.329371405922686
      vertex 63 -7.794228634059947 12.5
    endloop
  endfacet
  facet normal 0 -0.7933533402912357 0.6087614290087199
    outer loop
      vertex 25 -7.794228634059947 12.5
      vertex 63 -7.794228634059947 12.5
      vertex 63 -6.3639610306789285 14.36396103067893
    endloop
  endfacet
  facet normal 0 -0.6087614290087201 0.7933533402912356
    outer loop
      vertex 25 -4.5 15.794228634059948
      vertex 63 -6.3639610306789285 14.36396103067893
      vertex 63 -4.5 15.794228634059948
    endloop
  endfacet
  facet normal 0 -0.38268343236508984 0.9238795325112867
    outer loop
      vertex 25 -2.3293714059226867 16.693332436601615
      vertex 63 -4.5 15.794228634059948
      vertex 63 -2.3293714059226867 16.693332436601615
    endloop
  endfacet
  facet normal 0 -0.9914448613738105 0.13052619222005146
    outer loop
      vertex 63 -8.693332436601615 10.329371405922686
      vertex 48.2 -9 8
      vertex 53 -9 8
    endloop
  endfacet
  facet normal 0 -0.9914448613738105 0.13052619222005138
    outer loop
      vertex 63 -8.693332436601615 10.329371405922686
      vertex 53 -9 8
      vertex 54.2 -9 8
    endloop
  endfacet
  facet normal 0 -0.9914448613738105 0.13052619222005143
    outer loop
      vertex 63 -8.693332436601615 10.329371405922686
      vertex 54.2 -9 8
      vertex 59 -9 8
    endloop
  endfacet
  facet normal 0 -0.9914448613738105 0.1305261922200514
    outer loop
      vertex 63 -8.693332436601615 10.329371405922686
      vertex 59 -9 8
      vertex 60.2 -9 8
    endloop
  endfacet
  facet normal 0 -0.9914448613738104 0.1305261922200514
    outer loop
      vertex 63 -8.693332436601615 10.329371405922686
      vertex 60.2 -9 8
      vertex 61 -9 8
    endloop
  endfacet
  facet normal 0 -0.9914448613738105 0.1305261922200514
    outer loop
      vertex 63 -9 8
      vertex 63 -8.693332436601615 10.329371405922686
      vertex 61 -9 8
    endloop
  endfacet
  facet normal 1 0 0
    outer loop
      vertex 63 -9 8
      vertex 63 9 8
      vertex 63 -8.693332436601615 10.329371405922686
    endloop
  endfacet
  facet normal 1 0 0
    outer loop
      vertex 63 -8.693332436601615 10.329371405922686
      vertex 63 9 8
      vertex 63 -7.794228634059947 12.5
    endloop
  endfacet
  facet normal 1 0 0
    outer loop
      vertex 63 -7.794228634059947 12.5
      vertex 63 9 8
      vertex 63 -6.3639610306789285 14.36396103067893
    endloop
  endfacet
  facet normal 0 -0.13052619222005138 0.9914448613738104
    outer loop
      vertex 25 0 17
      vertex 63 -2.3293714059226867 16.693332436601615
      vertex 63 0 17
    endloop
  endfacet
  facet normal 0 0.13052619222005143 0.9914448613738105
    outer loop
      vertex 25 2.3293714059226858 16.693332436601615
      vertex 63 0 17
      vertex 63 2.3293714059226858 16.693332436601615
    endloop
  endfacet
  facet normal 0 0.9914448613738105 0.1305261922200514
    outer loop
      vertex 25 8.693332436601615 10.329371405922686
      vertex 63 9 8
      vertex 61 9 8
    endloop
  endfacet
  facet normal 0 0.9914448613738105 0.13052619222005143
    outer loop
      vertex 25 8.693332436601615 10.329371405922686
      vertex 63 8.693332436601615 10.329371405922686
      vertex 63 9 8
    endloop
  endfacet
  facet normal 0 0.9238795325112867 0.3826834323650897
    outer loop
      vertex 25 7.794228634059948 12.5
      vertex 63 7.794228634059948 12.5
      vertex 63 8.693332436601615 10.329371405922686
    endloop
  endfacet
  facet normal 0 0.6087614290087199 0.7933533402912357
    outer loop
      vertex 25 6.363961030678929 14.36396103067893
      vertex 63 4.5 15.794228634059948
      vertex 63 6.363961030678929 14.36396103067893
    endloop
  endfacet
  facet normal 0 0.3826834323650897 0.9238795325112867
    outer loop
      vertex 25 4.5 15.794228634059948
      vertex 63 2.3293714059226858 16.693332436601615
      vertex 63 4.5 15.794228634059948
    endloop
  endfacet
  facet normal 0 0.7933533402912357 0.6087614290087199
    outer loop
      vertex 25 6.363961030678929 14.36396103067893
      vertex 63 6.363961030678929 14.36396103067893
      vertex 63 7.794228634059948 12.5
    endloop
  endfacet
  facet normal 1 0 0
    outer loop
      vertex 63 -6.3639610306789285 14.36396103067893
      vertex 63 9 8
      vertex 63 -4.5 15.794228634059948
    endloop
  endfacet
  facet normal 1 0 0
    outer loop
      vertex 63 -4.5 15.794228634059948
      vertex 63 9 8
      vertex 63 -2.3293714059226867 16.693332436601615
    endloop
  endfacet
  facet normal 1 0 0
    outer loop
      vertex 63 -2.3293714059226867 16.693332436601615
      vertex 63 9 8
      vertex 63 0 17
    endloop
  endfacet
  facet normal 1 0 0
    outer loop
      vertex 63 9 8
      vertex 63 8.693332436601615 10.329371405922686
      vertex 63 7.794228634059948 12.5
    endloop
  endfacet
  facet normal 1 0 0
    outer loop
      vertex 63 9 8
      vertex 63 6.363961030678929 14.36396103067893
      vertex 63 4.5 15.794228634059948
    endloop
  endfacet
  facet normal 1 0 0
    outer loop
      vertex 63 9 8
      vertex 63 7.794228634059948 12.5
      vertex 63 6.363961030678929 14.36396103067893
    endloop
  endfacet
  facet normal 1 0 0
    outer loop
      vertex 63 9 8
      vertex 63 2.3293714059226858 16.693332436601615
      vertex 63 0 17
    endloop
  endfacet
  facet normal 1 0 0
    outer loop
      vertex 63 9 8
      vertex 63 4.5 15.794228634059948
      vertex 63 2.3293714059226858 16.693332436601615
    endloop
  endfacet
  facet normal 0 0 -1
    outer loop
      vertex 25 -9 8
      vertex 25 9 8
      vertex 27 -9 8
    endloop
  endfacet
  facet normal 0 0 -1
    outer loop
      vertex 25 9 8
      vertex 27 9 8
      vertex 27 -9 8
    endloop
  endfacet
  facet normal 0 0 -1
    outer loop
      vertex 63 -9 8
      vertex 61 -9 8
      vertex 61 9 8
    endloop
  endfacet
  facet normal 0 0 -1
    outer loop
      vertex 63 -9 8
      vertex 61 9 8
      vertex 63 9 8
    endloop
  endfacet
  facet normal -1 0 0
    outer loop
      vertex 41.4 -11.9 0.4
      vertex 41.4 -11.9 2.8
      vertex 41.4 -11.5 0.4
    endloop
  endfacet
  facet normal -1 0 0
    outer loop
      vertex 41.4 -11.5 0.4
      vertex 41.4 -11.9 2.8
      vertex 41.4 -11.5 2.8
    endloop
  endfacet
  facet normal 0 0 -1
    outer loop
      vertex 41.4 -11.9 0.4
      vertex 42.2 -11.5 0.4
      vertex 42.2 -11.9 0.4
    endloop
  endfacet
  facet normal 0 0 -1
    outer loop
      vertex 41.4 -11.9 0.4
      vertex 41.4 -11.5 0.4
      vertex 42.2 -11.5 0.4
    endloop
  endfacet
  facet normal 0 -1 0
    outer loop
      vertex 41.4 -11.9 0.4
      vertex 42.2 -11.9 0.4
      vertex 42.2 -11.9 2.8
    endloop
  endfacet
  facet normal 0 -1 0
    outer loop
      vertex 41.4 -11.9 0.4
      vertex 42.2 -11.9 2.8
      vertex 41.4 -11.9 2.8
    endloop
  endfacet
  facet normal 1 0 0
    outer loop
      vertex 42.2 -11.9 0.4
      vertex 42.2 -11.5 2.8
      vertex 42.2 -11.9 2.8
    endloop
  endfacet
  facet normal 1 0 0
    outer loop
      vertex 42.2 -11.9 0.4
      vertex 42.2 -11.5 0.4
      vertex 42.2 -11.5 2.8
    endloop
  endfacet
  facet normal 0 0 1
    outer loop
      vertex 41.4 -11.9 2.8
      vertex 42.2 -11.9 2.8
      vertex 41.4 -11.5 2.8
    endloop
  endfacet
  facet normal 0 0 1
    outer loop
      vertex 41.4 -11.5 2.8
      vertex 42.2 -11.9 2.8
      vertex 42.2 -11.5 2.8
    endloop
  endfacet
  facet normal 0 0 -1
    outer loop
      vertex 46 -11.9 0.4
      vertex 45.7 -11.9 0.4
      vertex 45.7 -11.5 0.4
    endloop
  endfacet
  facet normal 0 0 -1
    outer loop
      vertex 46 -11.9 0.4
      vertex 45.7 -11.5 0.4
      vertex 46 -11.5 0.4
    endloop
  endfacet
  facet normal 0 -1 0
    outer loop
      vertex 46 -11.9 0.4
      vertex 46 -11.9 2.8
      vertex 45.7 -11.9 0.4
    endloop
  endfacet
  facet normal 0 -1 0
    outer loop
      vertex 46 -11.9 2.8
      vertex 45.7 -11.9 2.8
      vertex 45.7 -11.9 0.4
    endloop
  endfacet
  facet normal 1 0 0
    outer loop
      vertex 46 -11.9 0.4
      vertex 46 -11.5 2.8
      vertex 46 -11.9 2.8
    endloop
  endfacet
  facet normal 1 0 0
    outer loop
      vertex 46 -11.9 0.4
      vertex 46 -11.5 0.4
      vertex 46 -11.5 2.8
    endloop
  endfacet
  facet normal 0 0 1
    outer loop
      vertex 46 -11.9 2.8
      vertex 46 -11.5 2.8
      vertex 45.7 -11.9 2.8
    endloop
  endfacet
  facet normal 0 0 1
    outer loop
      vertex 46 -11.5 2.8
      vertex 45.7 -11.5 2.8
      vertex 45.7 -11.9 2.8
    endloop
  endfacet
  facet normal 0 0 -1
    outer loop
      vertex 29 -9.4 0
      vertex 29 -9 0
      vertex 29.6 -9 0
    endloop
  endfacet
  facet normal 0 0 -1
    outer loop
      vertex 29 -9.4 0
      vertex 29.6 -9 0
      vertex 30.2 -9.4 0
    endloop
  endfacet
  facet normal -1 0 0
    outer loop
      vertex 29 -9.4 0
      vertex 29 -9 8
      vertex 29 -9 0
    endloop
  endfacet
  facet normal 0 0 -1
    outer loop
      vertex 30.2 -9.4 0
      vertex 29.6 -9 0
      vertex 30.2 -9 0
    endloop
  endfacet
  facet normal 0 -1 0
    outer loop
      vertex 29 -9.4 0
      vertex 30.2 -9.4 0
      vertex 30.2 -9.4 8
    endloop
  endfacet
  facet normal 1 0 0
    outer loop
      vertex 30.2 -9.4 0
      vertex 30.2 -9 0
      vertex 30.2 -9 8
    endloop
  endfacet
  facet normal -1 0 0
    outer loop
      vertex 29 -9.4 0
      vertex 29 -9.4 8
      vertex 29 -9 8
    endloop
  endfacet
  facet normal 0 -1 0
    outer loop
      vertex 29 -9.4 0
      vertex 30.2 -9.4 8
      vertex 29 -9.4 8
    endloop
  endfacet
  facet normal 0 0 1
    outer loop
      vertex 29 -9.4 8
      vertex 30.2 -9.4 8
      vertex 29 -9 8
    endloop
  endfacet
  facet normal 1 0 0
    outer loop
      vertex 30.2 -9.4 0
      vertex 30.2 -9 8
      vertex 30.2 -9.4 8
    endloop
  endfacet
  facet normal 0 0 1
    outer loop
      vertex 30.2 -9.4 8
      vertex 30.2 -9 8
      vertex 29 -9 8
    endloop
  endfacet
  facet normal 0 0 -1
    outer loop
      vertex 35 -9.4 0
      vertex 35 -9 0
      vertex 35.6 -9 0
    endloop
  endfacet
  facet normal 0 0 -1
    outer loop
      vertex 35 -9.4 0
      vertex 35.6 -9 0
      vertex 36.2 -9.4 0
    endloop
  endfacet
  facet normal 0 0 -1
    outer loop
      vertex 36.2 -9.4 0
      vertex 35.6 -9 0
      vertex 36.2 -9 0
    endloop
  endfacet
  facet normal -1 0 0
    outer loop
      vertex 35 -9.4 0
      vertex 35 -9 8
      vertex 35 -9 0
    endloop
  endfacet
  facet normal 0 -1 0
    outer loop
      vertex 35 -9.4 0
      vertex 36.2 -9.4 0
      vertex 36.2 -9.4 8
    endloop
  endfacet
  facet normal 1 0 0
    outer loop
      vertex 36.2 -9.4 0
      vertex 36.2 -9 0
      vertex 36.2 -9 8
    endloop
  endfacet
  facet normal -1 0 0
    outer loop
      vertex 35 -9.4 0
      vertex 35 -9.4 8
      vertex 35 -9 8
    endloop
  endfacet
  facet normal 0 -1 0
    outer loop
      vertex 35 -9.4 0
      vertex 36.2 -9.4 8
      vertex 35 -9.4 8
    endloop
  endfacet
  facet normal 1 0 0
    outer loop
      vertex 36.2 -9.4 0
      vertex 36.2 -9 8
      vertex 36.2 -9.4 8
    endloop
  endfacet
  facet normal 0 0 1
    outer loop
      vertex 35 -9.4 8
      vertex 36.2 -9.4 8
      vertex 35 -9 8
    endloop
  endfacet
  facet normal 0 0 1
    outer loop
      vertex 36.2 -9.4 8
      vertex 36.2 -9 8
      vertex 35 -9 8
    endloop
  endfacet
  facet normal -1 0 0
    outer loop
      vertex 41 -9.4 6
      vertex 41 -9 8
      vertex 41 -9 6
    endloop
  endfacet
  facet normal 0 -1 0
    outer loop
      vertex 41 -9.4 6
      vertex 42.2 -9.4 6
      vertex 41 -9.4 8
    endloop
  endfacet
  facet normal -1 0 0
    outer loop
      vertex 41 -9.4 6
      vertex 41 -9.4 8
      vertex 41 -9 8
    endloop
  endfacet
  facet normal 0 0 1
    outer loop
      vertex 41 -9.4 8
      vertex 42.2 -9.4 8
      vertex 41 -9 8
    endloop
  endfacet
  facet normal 1 0 0
    outer loop
      vertex 42.2 -9.4 6
      vertex 42.2 -9 6
      vertex 42.2 -9 8
    endloop
  endfacet
  facet normal 0 -1 0
    outer loop
      vertex 42.2 -9.4 6
      vertex 42.2 -9.4 8
      vertex 41 -9.4 8
    endloop
  endfacet
  facet normal 1 0 0
    outer loop
      vertex 42.2 -9.4 6
      vertex 42.2 -9 8
      vertex 42.2 -9.4 8
    endloop
  endfacet
  facet normal 0 0 1
    outer loop
      vertex 42.2 -9.4 8
      vertex 42.2 -9 8
      vertex 41 -9 8
    endloop
  endfacet
  facet normal 0 0 -1
    outer loop
      vertex 47 -9.4 0
      vertex 47 -9 0
      vertex 48.2 -9 0
    endloop
  endfacet
  facet normal 0 0 -1
    outer loop
      vertex 47 -9.4 0
      vertex 48.2 -9 0
      vertex 48.2 -9.4 0
    endloop
  endfacet
  facet normal 0 -1 0
    outer loop
      vertex 47 -9.4 0
      vertex 48.2 -9.4 0
      vertex 48.2 -9.4 8
    endloop
  endfacet
  facet normal 1 0 0
    outer loop
      vertex 48.2 -9.4 0
      vertex 48.2 -9 0
      vertex 48.2 -9 8
    endloop
  endfacet
  facet normal 0 -1 0
    outer loop
      vertex 47 -9.4 0
      vertex 48.2 -9.4 8
      vertex 47 -9.4 6
    endloop
  endfacet
  facet normal 1 0 0
    outer loop
      vertex 48.2 -9.4 0
      vertex 48.2 -9 8
      vertex 48.2 -9.4 8
    endloop
  endfacet
  facet normal -1 0 0
    outer loop
      vertex 47 -9.4 6
      vertex 47 -9 8
      vertex 47 -9 6
    endloop
  endfacet
  facet normal 0 -1 0
    outer loop
      vertex 47 -9.4 6
      vertex 48.2 -9.4 8
      vertex 47 -9.4 8
    endloop
  endfacet
  facet normal -1 0 0
    outer loop
      vertex 47 -9.4 6
      vertex 47 -9.4 8
      vertex 47 -9 8
    endloop
  endfacet
  facet normal 0 0 1
    outer loop
      vertex 47 -9.4 8
      vertex 48.2 -9.4 8
      vertex 47 -9 8
    endloop
  endfacet
  facet normal 0 0 1
    outer loop
      vertex 48.2 -9.4 8
      vertex 48.2 -9 8
      vertex 47 -9 8
    endloop
  endfacet
  facet normal 0 0 -1
    outer loop
      vertex 53 -9.4 0
      vertex 53 -9 0
      vertex 53.6 -9 0
    endloop
  endfacet
  facet normal -1 0 0
    outer loop
      vertex 53 -9.4 0
      vertex 53 -9 8
      vertex 53 -9 0
    endloop
  endfacet
  facet normal 0 -1 0
    outer loop
      vertex 53 -9.4 0
      vertex 54.2 -9.4 8
      vertex 53 -9.4 8
    endloop
  endfacet
  facet normal -1 0 0
    outer loop
      vertex 53 -9.4 0
      vertex 53 -9.4 8
      vertex 53 -9 8
    endloop
  endfacet
  facet normal 0 0 1
    outer loop
      vertex 53 -9.4 8
      vertex 54.2 -9.4 8
      vertex 53 -9 8
    endloop
  endfacet
  facet normal 0 0 -1
    outer loop
      vertex 53 -9.4 0
      vertex 53.6 -9 0
      vertex 54.2 -9.4 0
    endloop
  endfacet
  facet normal 0 0 -1
    outer loop
      vertex 54.2 -9.4 0
      vertex 53.6 -9 0
      vertex 54.2 -9 0
    endloop
  endfacet
  facet normal 0 -1 0
    outer loop
      vertex 53 -9.4 0
      vertex 54.2 -9.4 0
      vertex 54.2 -9.4 8
    endloop
  endfacet
  facet normal 1 0 0
    outer loop
      vertex 54.2 -9.4 0
      vertex 54.2 -9 0
      vertex 54.2 -9 8
    endloop
  endfacet
  facet normal 1 0 0
    outer loop
      vertex 54.2 -9.4 0
      vertex 54.2 -9 8
      vertex 54.2 -9.4 8
    endloop
  endfacet
  facet normal 0 0 1
    outer loop
      vertex 54.2 -9.4 8
      vertex 54.2 -9 8
      vertex 53 -9 8
    endloop
  endfacet
  facet normal 0 0 -1
    outer loop
      vertex 59 -9.4 0
      vertex 59 -9 0
      vertex 59.6 -9 0
    endloop
  endfacet
  facet normal 0 0 -1
    outer loop
      vertex 59 -9.4 0
      vertex 59.6 -9 0
      vertex 60.2 -9.4 0
    endloop
  endfacet
  facet normal 0 0 -1
    outer loop
      vertex 60.2 -9.4 0
      vertex 59.6 -9 0
      vertex 60.2 -9 0
    endloop
  endfacet
  facet normal -1 0 0
    outer loop
      vertex 59 -9.4 0
      vertex 59 -9 8
      vertex 59 -9 0
    endloop
  endfacet
  facet normal 0 -1 0
    outer loop
      vertex 59 -9.4 0
      vertex 60.2 -9.4 0
      vertex 60.2 -9.4 8
    endloop
  endfacet
  facet normal 1 0 0
    outer loop
      vertex 60.2 -9.4 0
      vertex 60.2 -9 0
      vertex 60.2 -9 8
    endloop
  endfacet
  facet normal 0 -1 0
    outer loop
      vertex 59 -9.4 0
      vertex 60.2 -9.4 8
      vertex 59 -9.4 8
    endloop
  endfacet
  facet normal -1 0 0
    outer loop
      vertex 59 -9.4 0
      vertex 59 -9.4 8
      vertex 59 -9 8
    endloop
  endfacet
  facet normal 1 0 0
    outer loop
      vertex 60.2 -9.4 0
      vertex 60.2 -9 8
      vertex 60.2 -9.4 8
    endloop
  endfacet
  facet normal 0 0 1
    outer loop
      vertex 59 -9.4 8
      vertex 60.2 -9.4 8
      vertex 59 -9 8
    endloop
  endfacet
  facet normal 0 0 1
    outer loop
      vertex 60.2 -9.4 8
      vertex 60.2 -9 8
      vertex 59 -9 8
    endloop
  endfacet
  facet normal 0 -1 0
    outer loop
      vertex 27 -9 0
      vertex 29 -9 0
      vertex 27 -9 8
    endloop
  endfacet
  facet normal 0 -1 0
    outer loop
      vertex 35 -9 0
      vertex 30.2 -9 8
      vertex 30.2 -9 0
    endloop
  endfacet
  facet normal 0 -1 0
    outer loop
      vertex 29 -9 0
      vertex 29 -9 8
      vertex 27 -9 8
    endloop
  endfacet
  facet normal 0 -1 0
    outer loop
      vertex 30.2 -9 8
      vertex 35 -9 0
      vertex 35 -9 8
    endloop
  endfacet
  facet normal -1 0 0
    outer loop
      vertex 27 -9 0
      vertex 27 -9 8
      vertex 27 9 8
    endloop
  endfacet
  facet normal 0 -1 0
    outer loop
      vertex 41 -9 0
      vertex 36.2 -9 8
      vertex 36.2 -9 0
    endloop
  endfacet
  facet normal 0 -1 0
    outer loop
      vertex 36.2 -9 8
      vertex 41 -9 0
      vertex 41 -9 6
    endloop
  endfacet
  facet normal 0 -1 0
    outer loop
      vertex 41 -9 6
      vertex 41 -9 8
      vertex 36.2 -9 8
    endloop
  endfacet
  facet normal 0 -1 0
    outer loop
      vertex 42.2 -9 6
      vertex 47 -9 8
      vertex 42.2 -9 8
    endloop
  endfacet
  facet normal 0 0 -1
    outer loop
      vertex 27 -9 0
      vertex 61 9 0
      vertex 29 -9 0
    endloop
  endfacet
  facet normal 0 0 -1
    outer loop
      vertex 61 9 0
      vertex 29.6 -9 0
      vertex 29 -9 0
    endloop
  endfacet
  facet normal 0 0 -1
    outer loop
      vertex 61 9 0
      vertex 30.2 -9 0
      vertex 29.6 -9 0
    endloop
  endfacet
  facet normal 0 0 -1
    outer loop
      vertex 61 9 0
      vertex 35 -9 0
      vertex 30.2 -9 0
    endloop
  endfacet
  facet normal 0 0 -1
    outer loop
      vertex 35 -9 0
      vertex 61 9 0
      vertex 35.6 -9 0
    endloop
  endfacet
  facet normal -1 0 0
    outer loop
      vertex 27 -9 0
      vertex 27 9 8
      vertex 27 9 0
    endloop
  endfacet
  facet normal 0 0 -1
    outer loop
      vertex 27 -9 0
      vertex 27 9 0
      vertex 61 9 0
    endloop
  endfacet
  facet normal 0 1 0
    outer loop
      vertex 27 9 0
      vertex 27 9 8
      vertex 61 9 0
    endloop
  endfacet
  facet normal 0 -1 0
    outer loop
      vertex 48.2 -9 8
      vertex 48.2 -9 0
      vertex 53 -9 0
    endloop
  endfacet
  facet normal 0 -1 0
    outer loop
      vertex 42.2 -9 6
      vertex 47 -9 6
      vertex 47 -9 8
    endloop
  endfacet
  facet normal 0 -1 0
    outer loop
      vertex 53 -9 0
      vertex 53 -9 8
      vertex 48.2 -9 8
    endloop
  endfacet
  facet normal 0 0 -1
    outer loop
      vertex 61 9 0
      vertex 36.2 -9 0
      vertex 35.6 -9 0
    endloop
  endfacet
  facet normal 0 0 -1
    outer loop
      vertex 61 9 0
      vertex 41 -9 0
      vertex 36.2 -9 0
    endloop
  endfacet
  facet normal 0 0 -1
    outer loop
      vertex 41 -9 0
      vertex 61 9 0
      vertex 46 -9 0
    endloop
  endfacet
  facet normal 0 0 -1
    outer loop
      vertex 61 9 0
      vertex 47 -9 0
      vertex 46 -9 0
    endloop
  endfacet
  facet normal 0 0 -1
    outer loop
      vertex 61 9 0
      vertex 48.2 -9 0
      vertex 47 -9 0
    endloop
  endfacet
  facet normal 0 -1 0
    outer loop
      vertex 54.2 -9 8
      vertex 54.2 -9 0
      vertex 59 -9 0
    endloop
  endfacet
  facet normal 0 -1 0
    outer loop
      vertex 61 -9 0
      vertex 60.2 -9 8
      vertex 60.2 -9 0
    endloop
  endfacet
  facet normal 0 -1 0
    outer loop
      vertex 59 -9 0
      vertex 59 -9 8
      vertex 54.2 -9 8
    endloop
  endfacet
  facet normal 0 -1 0
    outer loop
      vertex 61 -9 0
      vertex 61 -9 8
      vertex 60.2 -9 8
    endloop
  endfacet
  facet normal 0 0 -1
    outer loop
      vertex 61 9 0
      vertex 53 -9 0
      vertex 48.2 -9 0
    endloop
  endfacet
  facet normal 0 0 -1
    outer loop
      vertex 53 -9 0
      vertex 61 9 0
      vertex 53.6 -9 0
    endloop
  endfacet
  facet normal 0 0 -1
    outer loop
      vertex 61 9 0
      vertex 54.2 -9 0
      vertex 53.6 -9 0
    endloop
  endfacet
  facet normal 0 0 -1
    outer loop
      vertex 61 9 0
      vertex 59 -9 0
      vertex 54.2 -9 0
    endloop
  endfacet
  facet normal 0 0 -1
    outer loop
      vertex 59 -9 0
      vertex 61 9 0
      vertex 59.6 -9 0
    endloop
  endfacet
  facet normal 0 0 -1
    outer loop
      vertex 61 9 0
      vertex 60.2 -9 0
      vertex 59.6 -9 0
    endloop
  endfacet
  facet normal 0 0 -1
    outer loop
      vertex 61 -9 0
      vertex 60.2 -9 0
      vertex 61 9 0
    endloop
  endfacet
  facet normal 1 0 0
    outer loop
      vertex 61 -9 0
      vertex 61 9 0
      vertex 61 -9 8
    endloop
  endfacet
  facet normal 0 1 0
    outer loop
      vertex 61 9 0
      vertex 27 9 8
      vertex 61 9 8
    endloop
  endfacet
  facet normal 1 0 0
    outer loop
      vertex 61 9 0
      vertex 61 9 8
      vertex 61 -9 8
    endloop
  endfacet
  facet normal 0 -1 0
    outer loop
      vertex 41 -11.5 0
      vertex 42.2 -11.5 0.4
      vertex 41.4 -11.5 0.4
    endloop
  endfacet
  facet normal -1 0 0
    outer loop
      vertex 41 -11.5 0
      vertex 41 -9.4 6
      vertex 41 -9 0
    endloop
  endfacet
  facet normal 0 -1 0
    outer loop
      vertex 41 -11.5 0
      vertex 43.3 -11.5 0
      vertex 42.2 -11.5 0.4
    endloop
  endfacet
  facet normal 0 -1 0
    outer loop
      vertex 42.2 -11.5 0.4
      vertex 43.3 -11.5 0
      vertex 43.3 -11.5 3.2
    endloop
  endfacet
  facet normal 0 0 -1
    outer loop
      vertex 41 -11.5 0
      vertex 41 -9 0
      vertex 46 -9 0
    endloop
  endfacet
  facet normal 0 0 -1
    outer loop
      vertex 41 -11.5 0
      vertex 47 -9.4 0
      vertex 43.3 -11.5 0
    endloop
  endfacet
  facet normal 0 -1 0
    outer loop
      vertex 41 -11.5 0
      vertex 41.4 -11.5 0.4
      vertex 41 -11.5 6
    endloop
  endfacet
  facet normal 0 -1 0
    outer loop
      vertex 41.4 -11.5 0.4
      vertex 41.4 -11.5 2.8
      vertex 41 -11.5 6
    endloop
  endfacet
  facet normal 0 -1 0
    outer loop
      vertex 41.4 -11.5 2.8
      vertex 42.2 -11.5 2.8
      vertex 41 -11.5 6
    endloop
  endfacet
  facet normal -1 0 0
    outer loop
      vertex 41 -11.5 0
      vertex 41 -11.5 6
      vertex 41 -9.4 6
    endloop
  endfacet
  facet normal 0 -1 0
    outer loop
      vertex 42.2 -11.5 0.4
      vertex 42.9 -11.5 3.2
      vertex 42.2 -11.5 2.8
    endloop
  endfacet
  facet normal 0 -1 0
    outer loop
      vertex 42.2 -11.5 0.4
      vertex 43.3 -11.5 3.2
      vertex 42.9 -11.5 3.2
    endloop
  endfacet
  facet normal 0 -1 0
    outer loop
      vertex 42.2 -11.5 2.8
      vertex 42.9 -11.5 3.2
      vertex 42.9 -11.5 3.35
    endloop
  endfacet
  facet normal 0 -1 0
    outer loop
      vertex 42.2 -11.5 2.8
      vertex 42.9 -11.5 3.35
      vertex 41 -11.5 6
    endloop
  endfacet
  facet normal -1 0 0
    outer loop
      vertex 41 -9.4 6
      vertex 41 -9 6
      vertex 41 -9 0
    endloop
  endfacet
  facet normal 0 0 1
    outer loop
      vertex 41 -11.5 6
      vertex 42.2 -9.4 6
      vertex 41 -9.4 6
    endloop
  endfacet
  facet normal 0 -1 0
    outer loop
      vertex 42.9 -11.5 3.35
      vertex 47 -11.5 6
      vertex 41 -11.5 6
    endloop
  endfacet
  facet normal 0 0 1
    outer loop
      vertex 41 -11.5 6
      vertex 47 -11.5 6
      vertex 42.2 -9.4 6
    endloop
  endfacet
  facet normal 0 0 1
    outer loop
      vertex 42.2 -9.4 6
      vertex 47 -11.5 6
      vertex 42.2 -9 6
    endloop
  endfacet
  facet normal 0 -1 0
    outer loop
      vertex 46 -11.5 0.4
      vertex 45.7 -11.5 0
      vertex 47 -11.5 0
    endloop
  endfacet
  facet normal 0 -1 0
    outer loop
      vertex 46 -11.5 0.4
      vertex 45.7 -11.5 0.4
      vertex 45.7 -11.5 0
    endloop
  endfacet
  facet normal 0 -1 0
    outer loop
      vertex 46 -11.5 0.4
      vertex 47 -11.5 0
      vertex 46 -11.5 2.8
    endloop
  endfacet
  facet normal 0 0 -1
    outer loop
      vertex 41 -11.5 0
      vertex 46 -9 0
      vertex 47 -9 0
    endloop
  endfacet
  facet normal 0 0 -1
    outer loop
      vertex 41 -11.5 0
      vertex 47 -9 0
      vertex 47 -9.4 0
    endloop
  endfacet
  facet normal 0 0 -1
    outer loop
      vertex 47 -9.4 0
      vertex 45.7 -11.5 0
      vertex 43.3 -11.5 0
    endloop
  endfacet
  facet normal 0 0 -1
    outer loop
      vertex 47 -11.5 0
      vertex 45.7 -11.5 0
      vertex 47 -9.4 0
    endloop
  endfacet
  facet normal 1 0 0
    outer loop
      vertex 47 -11.5 0
      vertex 47 -9.4 0
      vertex 47 -11.5 6
    endloop
  endfacet
  facet normal 0 -1 0
    outer loop
      vertex 46 -11.5 2.8
      vertex 46.1 -11.5 3.2
      vertex 45.7 -11.5 2.8
    endloop
  endfacet
  facet normal 0 -1 0
    outer loop
      vertex 46.1 -11.5 3.2
      vertex 45.7 -11.5 3.2
      vertex 45.7 -11.5 2.8
    endloop
  endfacet
  facet normal 0 -1 0
    outer loop
      vertex 42.9 -11.5 3.35
      vertex 46.1 -11.5 3.35
      vertex 47 -11.5 6
    endloop
  endfacet
  facet normal 0 -1 0
    outer loop
      vertex 46 -11.5 2.8
      vertex 47 -11.5 6
      vertex 46.1 -11.5 3.2
    endloop
  endfacet
  facet normal 0 -1 0
    outer loop
      vertex 47 -11.5 0
      vertex 47 -11.5 6
      vertex 46 -11.5 2.8
    endloop
  endfacet
  facet normal 0 -1 0
    outer loop
      vertex 46.1 -11.5 3.2
      vertex 47 -11.5 6
      vertex 46.1 -11.5 3.35
    endloop
  endfacet
  facet normal 1 0 0
    outer loop
      vertex 47 -9.4 0
      vertex 47 -9.4 6
      vertex 47 -11.5 6
    endloop
  endfacet
  facet normal 0 0 1
    outer loop
      vertex 47 -11.5 6
      vertex 47 -9.4 6
      vertex 42.2 -9 6
    endloop
  endfacet
  facet normal 0 0 1
    outer loop
      vertex 47 -9.4 6
      vertex 47 -9 6
      vertex 42.2 -9 6
    endloop
  endfacet
  facet normal -1 0 0
    outer loop
      vertex 43.3 -11.9 0
      vertex 43.3 -11.5 3.2
      vertex 43.3 -11.5 0
    endloop
  endfacet
  facet normal -1 0 0
    outer loop
      vertex 43.3 -11.9 0
      vertex 43.3 -11.9 3.2
      vertex 43.3 -11.5 3.2
    endloop
  endfacet
  facet normal 0 0 -1
    outer loop
      vertex 43.3 -11.9 0
      vertex 43.3 -11.5 0
      vertex 45.7 -11.9 0
    endloop
  endfacet
  facet normal 0 -1 0
    outer loop
      vertex 43.3 -11.9 0
      vertex 45.7 -11.9 0
      vertex 45.7 -11.9 0.4
    endloop
  endfacet
  facet normal 0 0 -1
    outer loop
      vertex 45.7 -11.9 0
      vertex 43.3 -11.5 0
      vertex 45.7 -11.5 0
    endloop
  endfacet
  facet normal 1 0 0
    outer loop
      vertex 45.7 -11.9 0
      vertex 45.7 -11.5 0.4
      vertex 45.7 -11.9 0.4
    endloop
  endfacet
  facet normal 1 0 0
    outer loop
      vertex 45.7 -11.9 0
      vertex 45.7 -11.5 0
      vertex 45.7 -11.5 0.4
    endloop
  endfacet
  facet normal 0 -1 0
    outer loop
      vertex 43.3 -11.9 0
      vertex 45.7 -11.9 0.4
      vertex 45.7 -11.9 2.8
    endloop
  endfacet
  facet normal 0 -1 0
    outer loop
      vertex 43.3 -11.9 0
      vertex 45.7 -11.9 2.8
      vertex 45.7 -11.9 3.2
    endloop
  endfacet
  facet normal 0 -1 0
    outer loop
      vertex 43.3 -11.9 0
      vertex 45.7 -11.9 3.2
      vertex 43.3 -11.9 3.2
    endloop
  endfacet
  facet normal 1 0 0
    outer loop
      vertex 45.7 -11.5 2.8
      vertex 45.7 -11.9 3.2
      vertex 45.7 -11.9 2.8
    endloop
  endfacet
  facet normal 1 0 0
    outer loop
      vertex 45.7 -11.5 2.8
      vertex 45.7 -11.5 3.2
      vertex 45.7 -11.9 3.2
    endloop
  endfacet
  facet normal -1 0 0
    outer loop
      vertex 42.9 -12.4 3.2
      vertex 42.9 -12.4 3.35
      vertex 42.9 -11.5 3.2
    endloop
  endfacet
  facet normal 0 0 -1
    outer loop
      vertex 42.9 -12.4 3.2
      vertex 42.9 -11.5 3.2
      vertex 43.3 -11.9 3.2
    endloop
  endfacet
  facet normal -1 0 0
    outer loop
      vertex 42.9 -12.4 3.35
      vertex 42.9 -11.5 3.35
      vertex 42.9 -11.5 3.2
    endloop
  endfacet
  facet normal 0 -1 0
    outer loop
      vertex 42.9 -12.4 3.2
      vertex 46.1 -12.4 3.35
      vertex 42.9 -12.4 3.35
    endloop
  endfacet
  facet normal 0 0 -1
    outer loop
      vertex 42.9 -12.4 3.2
      vertex 43.3 -11.9 3.2
      vertex 45.7 -11.9 3.2
    endloop
  endfacet
  facet normal 0 0 1
    outer loop
      vertex 42.9 -12.4 3.35
      vertex 46.1 -12.4 3.35
      vertex 42.9 -11.5 3.35
    endloop
  endfacet
  facet normal 0 0 -1
    outer loop
      vertex 42.9 -11.5 3.2
      vertex 43.3 -11.5 3.2
      vertex 43.3 -11.9 3.2
    endloop
  endfacet
  facet normal 0 -1 0
    outer loop
      vertex 42.9 -12.4 3.2
      vertex 46.1 -12.4 3.2
      vertex 46.1 -12.4 3.35
    endloop
  endfacet
  facet normal 0 0 -1
    outer loop
      vertex 42.9 -12.4 3.2
      vertex 45.7 -11.9 3.2
      vertex 46.1 -12.4 3.2
    endloop
  endfacet
  facet normal 0 0 1
    outer loop
      vertex 42.9 -11.5 3.35
      vertex 46.1 -12.4 3.35
      vertex 46.1 -11.5 3.35
    endloop
  endfacet
  facet normal 1 0 0
    outer loop
      vertex 46.1 -12.4 3.2
      vertex 46.1 -11.5 3.35
      vertex 46.1 -12.4 3.35
    endloop
  endfacet
  facet normal 0 0 -1
    outer loop
      vertex 46.1 -12.4 3.2
      vertex 45.7 -11.9 3.2
      vertex 46.1 -11.5 3.2
    endloop
  endfacet
  facet normal 1 0 0
    outer loop
      vertex 46.1 -12.4 3.2
      vertex 46.1 -11.5 3.2
      vertex 46.1 -11.5 3.35
    endloop
  endfacet
  facet normal 0 0 -1
    outer loop
      vertex 46.1 -11.5 3.2
      vertex 45.7 -11.9 3.2
      vertex 45.7 -11.5 3.2
    endloop
  endfacet
endsolid OpenSCAD_Model
