solid OpenSCAD_Model
  facet normal -1 0 0
    outer loop
      vertex -52 -9.3 5
      vertex -52 -9.3 7
      vertex -52 -9 5
    endloop
  endfacet
  facet normal 0 0 -1
    outer loop
      vertex -52 -9.3 5
      vertex -52 -9 5
      vertex -49 -9 5
    endloop
  endfacet
  facet normal -1 0 0
    outer loop
      vertex -52 -9.3 7
      vertex -52 -9 7
      vertex -52 -9 5
    endloop
  endfacet
  facet normal 0 -1 0
    outer loop
      vertex -52 -9.3 5
      vertex -49 -9.3 7
      vertex -52 -9.3 7
    endloop
  endfacet
  facet normal 0 0 -1
    outer loop
      vertex -52 -9.3 5
      vertex -49 -9 5
      vertex -49 -9.3 5
    endloop
  endfacet
  facet normal 0 -1 0
    outer loop
      vertex -52 -9.3 5
      vertex -49 -9.3 5
      vertex -49 -9.3 7
    endloop
  endfacet
  facet normal 1 0 0
    outer loop
      vertex -49 -9.3 5
      vertex -49 -9 5
      vertex -49 -9 7
    endloop
  endfacet
  facet normal 1 0 0
    outer loop
      vertex -49 -9.3 5
      vertex -49 -9 7
      vertex -49 -9.3 7
    endloop
  endfacet
  facet normal 0 0 1
    outer loop
      vertex -52 -9.3 7
      vertex -49 -9.3 7
      vertex -52 -9 7
    endloop
  endfacet
  facet normal 0 0 1
    outer loop
      vertex -49 -9.3 7
      vertex -49 -9 7
      vertex -52 -9 7
    endloop
  endfacet
  facet normal -1 0 0
    outer loop
      vertex -44 -9.3 5
      vertex -44 -9.3 7
      vertex -44 -9 5
    endloop
  endfacet
  facet normal -1 0 0
    outer loop
      vertex -44 -9.3 7
      vertex -44 -9 7
      vertex -44 -9 5
    endloop
  endfacet
  facet normal 0 0 -1
    outer loop
      vertex -44 -9.3 5
      vertex -44 -9 5
      vertex -41 -9 5
    endloop
  endfacet
  facet normal 0 0 -1
    outer loop
      vertex -44 -9.3 5
      vertex -41 -9 5
      vertex -41 -9.3 5
    endloop
  endfacet
  facet normal 0 -1 0
    outer loop
      vertex -44 -9.3 5
      vertex -41 -9.3 5
      vertex -41 -9.3 7
    endloop
  endfacet
  facet normal 0 -1 0
    outer loop
      vertex -44 -9.3 5
      vertex -41 -9.3 7
      vertex -44 -9.3 7
    endloop
  endfacet
  facet normal 1 0 0
    outer loop
      vertex -41 -9.3 5
      vertex -41 -9 5
      vertex -41 -9 7
    endloop
  endfacet
  facet normal 1 0 0
    outer loop
      vertex -41 -9.3 5
      vertex -41 -9 7
      vertex -41 -9.3 7
    endloop
  endfacet
  facet normal 0 0 1
    outer loop
      vertex -44 -9.3 7
      vertex -41 -9.3 7
      vertex -44 -9 7
    endloop
  endfacet
  facet normal 0 0 1
    outer loop
      vertex -41 -9.3 7
      vertex -41 -9 7
      vertex -44 -9 7
    endloop
  endfacet
  facet normal -1 0 0
    outer loop
      vertex -36 -9.3 5
      vertex -36 -9.3 7
      vertex -36 -9 5
    endloop
  endfacet
  facet normal -1 0 0
    outer loop
      vertex -36 -9.3 7
      vertex -36 -9 7
      vertex -36 -9 5
    endloop
  endfacet
  facet normal 0 0 -1
    outer loop
      vertex -36 -9.3 5
      vertex -36 -9 5
      vertex -33 -9 5
    endloop
  endfacet
  facet normal 0 0 -1
    outer loop
      vertex -36 -9.3 5
      vertex -33 -9 5
      vertex -33 -9.3 5
    endloop
  endfacet
  facet normal 0 -1 0
    outer loop
      vertex -36 -9.3 5
      vertex -33 -9.3 5
      vertex -33 -9.3 7
    endloop
  endfacet
  facet normal 0 -1 0
    outer loop
      vertex -36 -9.3 5
      vertex -33 -9.3 7
      vertex -36 -9.3 7
    endloop
  endfacet
  facet normal 1 0 0
    outer loop
      vertex -33 -9.3 5
      vertex -33 -9 5
      vertex -33 -9 7
    endloop
  endfacet
  facet normal 1 0 0
    outer loop
      vertex -33 -9.3 5
      vertex -33 -9 7
      vertex -33 -9.3 7
    endloop
  endfacet
  facet normal 0 0 1
    outer loop
      vertex -36 -9.3 7
      vertex -33 -9.3 7
      vertex -36 -9 7
    endloop
  endfacet
  facet normal 0 0 1
    outer loop
      vertex -33 -9.3 7
      vertex -33 -9 7
      vertex -36 -9 7
    endloop
  endfacet
  facet normal -1 0 0
    outer loop
      vertex -56 -9 0
      vertex -56 -7 9
      vertex -56 -7 0
    endloop
  endfacet
  facet normal 0 -1 0
    outer loop
      vertex -56 -9 0
      vertex -52 -9 5
      vertex -56 -9 9
    endloop
  endfacet
  facet normal -1 0 0
    outer loop
      vertex -56 -9 0
      vertex -56 -9 9
      vertex -56 -7 9
    endloop
  endfacet
  facet normal 0 -1 0
    outer loop
      vertex -56 -9 0
      vertex -49 -9 5
      vertex -52 -9 5
    endloop
  endfacet
  facet normal 0 -1 0
    outer loop
      vertex -56 -9 0
      vertex -44 -9 5
      vertex -49 -9 5
    endloop
  endfacet
  facet normal 0 -1 0
    outer loop
      vertex -56 -9 0
      vertex -41 -9 5
      vertex -44 -9 5
    endloop
  endfacet
  facet normal 0 -1 0
    outer loop
      vertex -49 -9 7
      vertex -49 -9 5
      vertex -44 -9 5
    endloop
  endfacet
  facet normal 0 -1 0
    outer loop
      vertex -49 -9 7
      vertex -44 -9 5
      vertex -44 -9 7
    endloop
  endfacet
  facet normal 0 0 -1
    outer loop
      vertex -56 -9 0
      vertex -56 -7 0
      vertex -32 9 0
    endloop
  endfacet
  facet normal 0 0 1
    outer loop
      vertex -56 -9 9
      vertex -55.6 -7 9
      vertex -56 -7 9
    endloop
  endfacet
  facet normal 0 -1 0
    outer loop
      vertex -56 -9 9
      vertex -52 -9 5
      vertex -52 -9 7
    endloop
  endfacet
  facet normal 0 -1 0
    outer loop
      vertex -56 -9 9
      vertex -52 -9 7
      vertex -49 -9 7
    endloop
  endfacet
  facet normal 0 -1 0
    outer loop
      vertex -56 -9 9
      vertex -49 -9 7
      vertex -44 -9 7
    endloop
  endfacet
  facet normal 0 0 1
    outer loop
      vertex -56 -9 9
      vertex -32 -9 9
      vertex -55.6 -7 9
    endloop
  endfacet
  facet normal 0 0 1
    outer loop
      vertex -32 -9 9
      vertex -55.6 7 9
      vertex -55.6 -7 9
    endloop
  endfacet
  facet normal -1 0 0
    outer loop
      vertex -56 9 0
      vertex -56 7 0
      vertex -56 9 9
    endloop
  endfacet
  facet normal -1 0 0
    outer loop
      vertex -56 9 9
      vertex -56 7 0
      vertex -56 7 9
    endloop
  endfacet
  facet normal 0 0 -1
    outer loop
      vertex -32 9 0
      vertex -56 -7 0
      vertex -56 7 0
    endloop
  endfacet
  facet normal 0 0 -1
    outer loop
      vertex -56 9 0
      vertex -32 9 0
      vertex -56 7 0
    endloop
  endfacet
  facet normal 0 1 0
    outer loop
      vertex -56 9 0
      vertex -56 9 9
      vertex -32 9 0
    endloop
  endfacet
  facet normal 0 0 1
    outer loop
      vertex -56 9 9
      vertex -56 7 9
      vertex -55.6 7 9
    endloop
  endfacet
  facet normal 0 0 1
    outer loop
      vertex -56 9 9
      vertex -55.6 7 9
      vertex -32 -9 9
    endloop
  endfacet
  facet normal 0 -1 0
    outer loop
      vertex -56 -9 0
      vertex -32 -9 0
      vertex -41 -9 5
    endloop
  endfacet
  facet normal 0 -1 0
    outer loop
      vertex -41 -9 5
      vertex -36 -9 5
      vertex -41 -9 7
    endloop
  endfacet
  facet normal 0 0 -1
    outer loop
      vertex -56 -9 0
      vertex -32 9 0
      vertex -32 -9 0
    endloop
  endfacet
  facet normal 0 -1 0
    outer loop
      vertex -32 -9 0
      vertex -36 -9 5
      vertex -41 -9 5
    endloop
  endfacet
  facet normal 0 -1 0
    outer loop
      vertex -36 -9 5
      vertex -36 -9 7
      vertex -41 -9 7
    endloop
  endfacet
  facet normal 0 -1 0
    outer loop
      vertex -32 -9 0
      vertex -33 -9 5
      vertex -36 -9 5
    endloop
  endfacet
  facet normal 0 -1 0
    outer loop
      vertex -32 -9 0
      vertex -33 -9 7
      vertex -33 -9 5
    endloop
  endfacet
  facet normal 0 -1 0
    outer loop
      vertex -32 -9 0
      vertex -32 -9 9
      vertex -33 -9 7
    endloop
  endfacet
  facet normal 1 0 0
    outer loop
      vertex -32 -9 0
      vertex -32 9 0
      vertex -32 -9 9
    endloop
  endfacet
  facet normal 0 -1 0
    outer loop
      vertex -56 -9 9
      vertex -44 -9 7
      vertex -32 -9 9
    endloop
  endfacet
  facet normal 0 -1 0
    outer loop
      vertex -32 -9 9
      vertex -44 -9 7
      vertex -41 -9 7
    endloop
  endfacet
  facet normal 0 -1 0
    outer loop
      vertex -32 -9 9
      vertex -41 -9 7
      vertex -36 -9 7
    endloop
  endfacet
  facet normal 0 -1 0
    outer loop
      vertex -32 -9 9
      vertex -36 -9 7
      vertex -33 -9 7
    endloop
  endfacet
  facet normal 0 1 0
    outer loop
      vertex -56 9 9
      vertex -32 9 9
      vertex -32 9 0
    endloop
  endfacet
  facet normal 1 0 0
    outer loop
      vertex -32 -9 9
      vertex -32 9 0
      vertex -32 9 9
    endloop
  endfacet
  facet normal 0 0 1
    outer loop
      vertex -56 9 9
      vertex -32 -9 9
      vertex -32 9 9
    endloop
  endfacet
  facet normal 0 -1 0
    outer loop
      vertex -57.2 -7 0
      vertex -56 -7 0
      vertex -56 -7 9
    endloop
  endfacet
  facet normal 0 0 -1
    outer loop
      vertex -57.2 -7 0
      vertex -57.2 7 0
      vertex -56 -7 0
    endloop
  endfacet
  facet normal 0 -1 0
    outer loop
      vertex -57.2 -7 0
      vertex -56 -7 9
      vertex -55.6 -7 13
    endloop
  endfacet
  facet normal 0 -1 0
    outer loop
      vertex -57.2 -7 0
      vertex -55.6 -7 13
      vertex -57.2 -7 13
    endloop
  endfacet
  facet normal 0 -1 0
    outer loop
      vertex -55.6 -7 13
      vertex -56 -7 9
      vertex -55.6 -7 9
    endloop
  endfacet
  facet normal -1 0 0
    outer loop
      vertex -57.2 -7 0
      vertex -57.2 -7 13
      vertex -57.2 7 13
    endloop
  endfacet
  facet normal 1 0 0
    outer loop
      vertex -55.6 -7 13
      vertex -55.6 -7 9
      vertex -55.6 7 9
    endloop
  endfacet
  facet normal 0 0 1
    outer loop
      vertex -57.2 -7 13
      vertex -55.6 -7 13
      vertex -57.2 7 13
    endloop
  endfacet
  facet normal 0 0 -1
    outer loop
      vertex -57.2 7 0
      vertex -56 7 0
      vertex -56 -7 0
    endloop
  endfacet
  facet normal -1 0 0
    outer loop
      vertex -57.2 -7 0
      vertex -57.2 7 13
      vertex -57.2 7 0
    endloop
  endfacet
  facet normal 0 1 0
    outer loop
      vertex -57.2 7 0
      vertex -57.2 7 13
      vertex -56 7 0
    endloop
  endfacet
  facet normal 0 0 1
    outer loop
      vertex -55.6 -7 13
      vertex -55.6 7 13
      vertex -57.2 7 13
    endloop
  endfacet
  facet normal 1 0 0
    outer loop
      vertex -55.6 -7 13
      vertex -55.6 7 9
      vertex -55.6 7 13
    endloop
  endfacet
  facet normal 0 1 0
    outer loop
      vertex -57.2 7 13
      vertex -56 7 9
      vertex -56 7 0
    endloop
  endfacet
  facet normal 0 1 0
    outer loop
      vertex -55.6 7 13
      vertex -55.6 7 9
      vertex -56 7 9
    endloop
  endfacet
  facet normal 0 1 0
    outer loop
      vertex -57.2 7 13
      vertex -55.6 7 13
      vertex -56 7 9
    endloop
  endfacet
endsolid OpenSCAD_Model
